<?xml version="1.0" standalone="no"?>
<!DOCTYPE svg PUBLIC "-//W3C//DTD SVG 1.1//EN" "http://www.w3.org/Graphics/SVG/1.1/DTD/svg11.dtd" >
<svg xmlns="http://www.w3.org/2000/svg">
<metadata></metadata>
<defs>
<font id="cookiemonstermedium" horiz-adv-x="626" >
<font-face units-per-em="2048" ascent="2048" descent="0" />
<missing-glyph horiz-adv-x="614" />
<glyph horiz-adv-x="0" />
<glyph unicode="&#xd;" horiz-adv-x="681" />
<glyph unicode=" "  horiz-adv-x="614" />
<glyph unicode="&#x09;" horiz-adv-x="614" />
<glyph unicode="&#xa0;" horiz-adv-x="614" />
<glyph unicode="!" horiz-adv-x="931" d="M62.5 1373q-3.5 22 10 39.5t35 20.5t39.5 -10q0 23 14.5 39.5t37.5 16.5q379 12 614 98q20 8 40.5 -1t28 -29.5t-2 -41t-29.5 -26.5l-19 -9q-4 -16 -10 -34l-10 -35q-6 -16 -14 -37l-15 -31q-4 -12 -15 -33.5t-15 -32t-17 -32.5l-16 -31l-19 -30q-12 -25 -16 -31 q-37 -188 -45 -215q-6 -20 -24.5 -31.5t-41.5 -5.5q-2 0 -6 2q-55 -141 -116 -346q-6 -20 -25.5 -30.5t-42.5 -4.5q-23 8 -33 29q-12 10 -16 22q-33 84 -55 158q-25 16 -25 47q0 16 2 35q-10 35 -16 71q-8 37 -23 136q-12 90 -22 131q-33 137 -113 196q-16 14 -19.5 36z M147 1421v2v-2zM201 1372q51 -59 80 -149q6 78 8 137q0 8 4 16l-90 -4h-2zM217 398q0 22 16.5 37.5t38 15t37.5 -16.5q82 -86 215 -26q20 8 41 -0.5t30 -28t1 -40t-27 -30.5q-203 -90 -338 51q-14 16 -14 38zM230.5 172.5q7.5 20.5 28 29.5t40.5 1q61 -18 95 -14t106 30 q20 8 39.5 0t27.5 -29.5t0 -41t-30 -27.5q-55 -23 -90 -32t-83.5 -7t-101.5 22q-20 6 -29.5 27t-2 41.5zM308 -13.5q-5 21.5 7 40t35 22.5l86 19q20 6 39 -6.5t24 -34t-7.5 -40t-34.5 -22.5l-86 -18q-20 -6 -39 6t-24 33.5zM436 842q27 76 56 143q-6 16 -3 31l39 178 q29 139 52 213q-47 -8 -99 -14q0 -7 -2 -11q-12 -61 -18 -127.5t-9 -163t-5.5 -137.5t-10.5 -112z" />
<glyph unicode="&#x22;" horiz-adv-x="509" d="M172 1542q-2 20 13.5 36.5t37 18.5t38 -13t18.5 -38q8 -141 16 -526q0 -23 -15.5 -39t-37 -16t-38 15t-16.5 36q-8 385 -16 526zM330 1491q-4 23 9 40t34.5 22.5t39 -8.5t23.5 -34q12 -68 17 -170q8 -137 10 -161q2 -20 -12.5 -38t-36 -20t-39 12.5t-19.5 36.5 q-2 25 -10 164q-4 96 -16 156z" />
<glyph unicode="#" horiz-adv-x="1744" d="M102 870q-10 74 4.5 168.5t51.5 165.5q49 94 127 117q90 25 194 -55q41 -33 99 -127q43 -74 98 -189l96 -211q92 174 249 362.5t302 323.5q70 63 129 105q53 37 92 51q72 27 115 -12q39 -35 39 -115q0 -53 -15 -129q-25 -111 -61 -203q-41 -102 -100.5 -207.5 t-112.5 -185.5t-139 -188l-137 -166l-152 -174l-141 -162q-14 -16 -36 -18.5t-38 12.5q-6 -12 -16 -19q-16 -14 -39 -12t-35 21q-45 59 -162 184q-123 133 -174 194q-207 250 -238 469zM209 887q29 -195 213 -418q49 -59 170 -190q113 -121 160 -181q2 6 6 11l147 165 l158 183l133 161q80 100 139.5 191.5t108.5 185.5q-18 -8 -39 0.5t-29 28.5t0 41l21 51q8 20 28.5 28.5t40.5 0.5q27 -10 33 -41l25 59q33 82 55 185q12 63 12 104q0 20 -2 33q-4 -2 -8 -2q-27 -10 -68 -39q-45 -33 -100 -80q23 2 40 -12.5t19 -36t-12 -37.5l-35 -43 q-14 -18 -35.5 -20.5t-37.5 12.5q-33 27 -15 63q-156 -152 -301 -340t-211 -344q6 -18 -2 -36.5t-24 -26.5q-23 -35 -62 -23q-23 8 -32 27.5t-3 40.5l9 20q-57 145 -131 297q-51 109 -95 178q-45 78 -71 97q-61 49 -101 39q-35 -10 -61 -64q-29 -55 -39 -135 q-12 -78 -4 -133zM246 932.5q-6 21.5 4 40.5l61 114q10 20 32 26.5t41 -3.5t25.5 -32t-3.5 -40l-62 -114q-10 -20 -31.5 -26.5t-41 3.5t-25.5 31.5zM301 779.5q-8 21.5 0 39.5l43 99q8 20 29.5 28t41 0t27.5 -29.5t0 -39.5l-43 -99q-8 -20 -29.5 -28.5t-41 0t-27.5 30z M393 518.5q-6 20.5 4 40.5l13 23l8 16t4 7t3 5t1 4v9l4 20q4 16 10 41q4 23 22.5 35t40 7t34 -23.5t6.5 -38.5q-2 -16 -6 -37l-7 -29q-2 -10 -4 -16q-2 -8 -34 -72q-10 -20 -31 -26.5t-41.5 4t-26.5 31zM543 436.5q-8 20.5 0 40.5q6 12 11 23.5t7 14.5t3 6t2 5t1 5.5t1 6.5 t3 14t7 26q4 23 22 35t40 6.5t34 -24t6 -38.5q-12 -61 -12 -63q-2 -2 -27 -62q-10 -18 -30.5 -26.5t-40 1t-27.5 30zM645 295q6 16 10 28.5t5.5 16.5t3.5 6l2 6v6q0 4 2 19q0 10 2 35q2 23 19.5 37t39 12t35.5 -20t12 -38q-6 -72 -6 -73q-2 -4 -22 -68q-8 -20 -28 -30.5 t-40.5 -3t-30.5 26.5t-4 40zM790.5 266.5q-8.5 20.5 0.5 40.5q23 55 53 115q10 18 30.5 25.5t40 -3t26.5 -31t-3 -40.5l-49 -107q-8 -20 -28.5 -28.5t-41 0t-29 29zM905 524l31 117q4 23 23.5 34t41 6t32.5 -25t5 -40l-30 -120q-6 -20 -24.5 -31.5t-40 -5.5t-33 24.5 t-5.5 40.5zM948 758.5q-4 21.5 8 40.5q10 12 18.5 24.5t10.5 14.5t6 9t5 9t7.5 15.5t14.5 27.5q10 20 30.5 26.5t41 -4t26.5 -31t-4 -40.5q-8 -14 -15 -29.5t-8.5 -17.5t-6.5 -11.5t-7 -10.5t-11 -15t-17 -29q-14 -18 -36 -22t-40.5 9t-22.5 34.5zM1082.5 612.5 q-7.5 20.5 0.5 40.5l29 62q10 20 30.5 27.5t41 -2t27.5 -30t-1 -40.5l-28 -62q-10 -20 -31 -27.5t-41 2t-27.5 30zM1190 918l16 53q4 14 5 18t1 19q4 37 7 49q2 23 19 36t39.5 11t36 -19.5t11.5 -40.5q-2 -12 -6 -49q-2 -18 -4 -28q-2 -8 -8 -27l-15 -51q-6 -23 -25.5 -33 t-41 -4t-31.5 25.5t-4 40.5z" />
<glyph unicode="$" horiz-adv-x="2007" d="M-207 1028q2 20 19.5 34.5t40.5 12.5q4 0 8 -2q16 27 49 25q23 -2 37 -18.5t12 -39.5q-2 -16 -6 -34q4 8 12 16q16 14 39 14q10 0 19 -4l2 4q6 20 24.5 31.5t40 5.5t32.5 -24.5t5 -40.5q-33 -125 -49 -160q-8 -16 -15 -25q2 -6 3 -14q6 -158 12 -254q37 -4 67 -18 q43 -20 80 -55.5t56 -63.5l47 -72q27 -45 37 -59q51 -74 198 -90q100 -10 264 8q18 2 35 4q-92 -6 -215 27q-248 66 -362 198q-141 160 -97 416q35 193 205 369q170 174 406 286q156 74 307 109q154 33 307.5 14.5t263.5 -100.5q150 -113 181 -281q37 -213 -58.5 -453.5 t-273.5 -412.5h8q94 0 147 -2q90 -2 144 -10q37 -6 59 -15q37 -10 53 -32q37 -43 21 -89q-14 -35 -57 -55q-49 -23 -152 -33q-63 -6 -160 -6h-33h-24h-19q-27 -6 -51 -30q-2 -4 -15 -18.5t-26.5 -27t-25.5 -22.5q-25 -18 -56.5 -31.5t-59.5 -20.5t-66.5 -13.5t-60.5 -7.5 t-61.5 -4t-48.5 -3q-168 -12 -292 8q-2 -8 -7 -14q-27 -53 -49 -107q-8 -20 -28.5 -28t-41 0t-28.5 28.5t0 40.5q25 57 47 105q-16 4 -33 10q-2 -8 -4 -14q-33 -57 -67 -82q-23 -16 -45 -19q-39 -4 -60 27q-27 35 -6 94q10 33 35 70l-23 16q-43 29 -57 31q-10 2 -41 -18 q-61 -39 -94 -46q-113 -16 -252 52q-160 74 -186 188q-18 72 9 130.5t83 90.5q-14 35 -39 105q-31 90 -56 129q-10 18 -3.5 39.5t24.5 33t39.5 5t34.5 -24.5q27 -49 61 -147l2 -7q-2 59 -6 148q0 10 4 20q-4 8 -6 15q-12 35 -8 145v8q-2 -10 -6 -22q-16 -41 -33 -64 q-18 -25 -41 -33q-27 -6 -51 11q-14 10 -21 30q-12 31 -4 113zM-88 377q45 -2 100 -2q23 0 38.5 -15.5t15.5 -38t-15.5 -38t-38.5 -15.5h-59q33 -33 88 -57l20 -10v4q0 23 15.5 38t38 15t38 -15.5t15.5 -37.5q0 -18 -10 -33q39 -8 73 -2q10 2 54 29l10 6q-10 10 -16 20 q-20 29 -46 70l-40 61q-12 23 -37 45.5t-56 36.5q-70 35 -141 -4q-39 -23 -47 -57zM295 834q-37 -207 70 -330q94 -106 311 -166q150 -39 252 -10q90 27 202.5 86t212.5 137q233 182 256 348q25 178 -75 256q-92 68 -269 55q-168 -12 -330.5 -90t-217.5 -166 q-37 -57 -42.5 -125.5t17.5 -119.5q53 -121 192 -101q51 6 94.5 28.5t81 65.5t63.5 79t67 104q12 18 33.5 23t40 -7t23.5 -34t-7 -40l-53 -82q-16 -27 -57.5 -79t-74 -77.5t-85 -52t-109.5 -34.5q-109 -14 -188.5 32t-116.5 132q-35 78 -28 172t58 174q74 115 259.5 203 t371.5 102q217 16 340 -78q150 -113 119 -352q-29 -209 -297 -420q-109 -86 -229 -148q-121 -66 -224 -94q-10 -4 -22 -6q178 31 307 90q152 72 281 223q129 154 193.5 343.5t35.5 351.5q-23 129 -139 215q-141 96 -344 85t-424 -116q-217 -104 -369 -262 q-154 -158 -180 -315zM705 88q135 -35 329 -20q12 0 54 3t58.5 4t50.5 6t52.5 10t41 14.5t38.5 21.5q10 6 19 14l20 21l21 22q47 47 104 58q8 2 39 4h24h33q89 0 152 6q33 4 69 10q-49 8 -133 10q-51 2 -143 2q-82 0 -102 2q-12 2 -23 7q-61 -43 -123 -72 q-180 -82 -446 -113q-78 -8 -135 -10z" />
<glyph unicode="%" horiz-adv-x="1587" d="M-133 852q-20 82 43 129q41 33 117 39h39q-84 94 -58 192q18 70 64 88q41 16 88 -6q29 -16 63 -49q39 -39 84 -102q-33 96 -51 157q-12 47 -16 78q-8 45 2 70q33 70 129 65q88 -4 125 -59q16 -25 30 -96q16 -68 21 -152q41 129 119 240q49 70 114 115q51 35 97 34 q68 0 100 -65q10 -20 6 -47q-4 -14 -10 -33q-6 -16 -19 -45q121 86 252 125q2 0 4 2t8.5 5t16.5 7q53 23 88 -8q33 -31 29 -82q-4 -29 -19 -57q-6 -14 -35 -41l-55 -51l-139 -119l72 33q121 53 178 65q72 16 116 -2q72 -27 70 -115q-2 -74 -100 -186q-72 -82 -201 -193 l-219 -180q-117 -92 -150 -125q-131 -131 -196 -202q4 -29 -19 -48q-16 -16 -37.5 -14t-35.5 19q-25 27 -72 63l-82 64q-35 25 -117 81l-112 76q-143 100 -211 162q-104 94 -121 168zM-31 877q10 -41 90 -113q68 -59 201 -154l88 -61l94 -66l82 -61q47 -33 78 -60l195 199 q27 27 155 131l217 178q125 106 191 181q72 84 74 120l-2 13q-14 6 -56 -4q-47 -10 -159 -60q-391 -172 -592 -397q2 -18 -9 -35q-12 -18 -33.5 -23.5t-39.5 7.5q-35 23 -109 78q-18 6 -28 22l-33 25q-100 72 -166 94q-80 29 -172 22q-45 -4 -62 -16q-6 -6 -4 -20zM111 1184 q-16 -63 86 -137q35 -27 77 -48l-24 37q-61 92 -103 133q-18 21 -32 27q-2 -4 -4 -12zM137.5 805.5q1.5 21.5 19 36t39 12.5t35.5 -18l39 -48q14 -18 12.5 -39.5t-19 -36t-39 -12.5t-36.5 19l-38 47q-14 18 -12.5 39.5zM342 1405q2 -6 2 -10q4 -25 16 -66q16 -61 62 -194 l18 -54q4 152 -16 252q-12 55 -18 64q-2 2 -5.5 3t-7.5 3t-11 3t-15 1q-15 0 -25 -2zM359.5 635.5q2.5 21.5 20 35t39.5 10.5t36 -19l12 -15l8 -12l3 -6l1 -2l4 -4q2 -2 3 -2t3.5 -2.5t6.5 -4.5t12 -8l18 -14q18 -12 21.5 -33.5t-9 -40t-34 -21.5t-39.5 9q-53 37 -55 39 t-41 51q-12 18 -9.5 39.5zM608 514.5q-8 20.5 0 40.5l27 68q8 20 28.5 28t41 0t28.5 -28.5t0 -40.5l-26 -68q-8 -20 -29 -28.5t-41.5 0t-28.5 29zM608 973l129 233q70 129 107 209q20 45 28 70l2 4q-14 -2 -34 -16q-49 -33 -88 -89q-121 -172 -144 -411zM728 761q-3 22 9 40 l39 51q14 16 36 19t39 -10t20 -34.5t-9 -40.5l-39 -51q-14 -16 -35.5 -19t-39 10t-20.5 35zM799 1069l213 178l159 137l39 35q-129 -43 -241.5 -138t-169.5 -212zM1079.5 964.5q2.5 22.5 20.5 34.5q59 47 129 97q18 12 40.5 7t35 -22.5t7.5 -40t-22 -34.5q-70 -45 -125 -88 q-16 -14 -38.5 -12.5t-36 19t-11 40z" />
<glyph unicode="&#x26;" horiz-adv-x="1449" d="M317.5 1144q-1.5 22 12.5 38q100 125 219 204q121 80 278 142q2 141 4 190q0 23 16.5 37t39 14t37 -16t14.5 -39q-2 -53 -4 -149q53 16 100 24q164 29 258 -28q119 -72 111 -256q-4 -102 -49 -203q-45 -102 -117 -186.5t-144.5 -150t-156.5 -122.5q-4 -4 -12 -8 q4 -57 -23 -117q-29 -61 -80 -112.5t-106 -75.5q-20 -8 -41 0t-29 28.5t0 41t29 28.5q37 14 74 51q37 39 55 82q4 8 6 14q-23 -10 -43 -16q-70 -23 -119 -16q-80 12 -94 94q-8 55 26.5 93t84.5 56q109 43 176 -4q29 -18 47 -45q170 121 285.5 268.5t123.5 303.5 q6 121 -59 159q-59 37 -184 17q-55 -10 -121 -31q-2 -133 -12 -233q-2 -20 -19.5 -35t-39 -12.5t-36 19.5t-12.5 40q8 80 12 180q-127 -55 -219 -117q-102 -70 -194 -180q-14 -18 -36 -20t-39.5 12t-19 36zM659 651q0 -2 3 -2h2q23 -4 69 10q27 11 60 25q-6 6 -15 12 q-2 2 -11 3t-27.5 -2t-37.5 -9q-20 -8 -30 -16t-13 -15v-4v-2zM762 8q4 70 10 131q2 20 19.5 34.5t39 12.5t36 -19t12.5 -40q-6 -57 -11 -127q-2 -20 -18 -35.5t-37.5 -13.5t-37 18.5t-13.5 38.5z" />
<glyph unicode="'" horiz-adv-x="421" d="M130 1664q3 22 21.5 34t40 9t33.5 -21q47 -66 84 -173q49 -135 62 -159q8 -20 1 -41t-27.5 -30t-41 -2t-31.5 28q-10 27 -63 170q-33 90 -70 145q-12 18 -9 40z" />
<glyph unicode="(" horiz-adv-x="688" d="M188 737q-10 444 256 846l27 49q9 17 25 25l51 65q14 16 35.5 18.5t39 -12t19.5 -36t-12 -39.5q-51 -61 -94 -127l-50 -84q-47 -82 -69 -137q-137 -322 -72 -799q4 -31 31 -139q27 -98 26 -158v-2v-10q-4 -39 -39 -47h-12q-35 -4 -51 32l-2 8v3q0 2 -2 2v6v2 q-10 41 -37 133q-66 227 -70 401z" />
<glyph unicode=")" horiz-adv-x="563" d="M116 1558.5q-3 22.5 9 40t34.5 20.5t39.5 -9q23 -16 47 -43q16 -6 26 -21q154 -209 205 -411.5t35 -458.5q-8 -174 -8 -187q-2 -115 -62 -294q-23 -68 -43 -117q-10 -23 -18 -37q-6 -10 -10 -16q-6 -8 -13 -13q-20 -14 -45 -8q-45 10 -53 55q-2 23 4 54q8 29 39 110 q76 193 88 309q11 79 15 142q10 213 -13 327q-18 104 -100 283q-90 193 -156 240q-18 12 -21 34.5z" />
<glyph unicode="*" horiz-adv-x="1370" d="M-94 823q0 12 4 23.5t8 15.5l4 4q4 4 8 6q2 2 5.5 3.5t7.5 3.5q6 4 18 8l55 22l125 49q94 39 291 95q35 131 84 243q37 82 68 142q29 55 49 86q14 20 26 35q25 25 56 24q12 0 22.5 -5t14.5 -11l4 -4q2 -4 5 -9.5t7 -13.5q6 -12 16 -39l50 -119q37 -88 69 -157l53 30 l43 25q10 6 16.5 9t12.5 5t14 2q25 2 41 -16q14 -16 15 -39q0 -8 -2 -16t-6 -17l-17 -26l-49 -70l-35 -47q49 -80 197 -293l92 -133l27 -43q6 -10 10 -14l4 -9q2 -6 2 -10q4 -20 -4 -37q-25 -45 -82 -37q-10 2 -25 7q-10 2 -12 2q-94 18 -297 75q-117 35 -182 50l-12 -27 q-14 -31 -48 -31q-70 -106 -124 -182q-4 -6 -9 -10v-2q0 -23 -16 -37.5t-38.5 -14.5t-37 16.5t-14.5 39.5v12l-10 -51q-4 -23 -22.5 -35t-40 -7t-34 23.5t-6.5 38.5q12 68 58 351q-139 43 -172 53q-35 10 -179 14h-4q-2 -2 -9 -3t-9 -3q-20 -4 -37 0q-45 8 -49 55zM-2 786 q10 -8 14 7l-10 -5zM518 961q18 4 49 14l2 8l-30 -10l-19 -6zM553 1087l55 19l2 4q4 14 15 25q2 10 4 22q-2 6 -2 14q0 86 2 113l-15 -33q-37 -84 -61 -164zM606 754h2l15 39h-5zM696 1423h6l-4 4zM772 1243l4 4l-4 6v-10zM842 856q117 -23 178 -37h4l-88 133q-16 -8 -33 -6 zM1040 727l56 -12l-35 51q0 -4 -2 -10q-5 -17 -19 -29z" />
<glyph unicode="+" horiz-adv-x="1619" d="M224.5 478q-5.5 22 6.5 40v2v12l19 86q12 57 18 89t11.5 77t3.5 84q0 23 14 39.5t37 16.5h8q6 27 33 34q39 16 145 48q86 27 135 49l240 112q150 70 248 105q16 6 31 2q33 20 61 -4q96 -76 158 -115h12q25 -6 37 -29l45 -24q18 16 43 12q20 -4 32.5 -22t10.5 -41 q-6 -25 -25.5 -136.5t-27.5 -148.5l-25 -133q-20 -96 -37 -150l-37 -131q-25 -78 -53.5 -143.5t-60.5 -130.5q-10 -18 -28.5 -25.5t-37.5 0.5l6 -16q10 -25 -2 -47q-2 -12 -8 -23q-14 -18 -35.5 -22t-40.5 8q-76 53 -168 104h-6q-35 0 -49 31q-74 41 -223 115 q-346 172 -465 243q-20 10 -25.5 32zM350 571q10 12 25 15l51 12q0 10 6 18l4 13q-23 -33 -61 -19q-8 2 -17 8zM389 831l6 25h-6v-25zM399 483l25 -14v18zM444 647q41 86 82 191q0 4 2 6l-22 12q-35 -135 -62 -209zM528 510l9 -98l100 -52q2 4 2 7q31 90 35 106l-58 57 q-2 2 -4 7l-84 -23v-4zM608 922l228 -117l-11 20q-68 131 -82 152l-43 -21q-41 -16 -92 -34zM674 666q61 18 123 39l-95 49q0 -8 -4 -19zM731 315l31 -16l96 -47v4v51l-41 37q-16 -35 -55 -31q-14 2 -25 11q-4 -4 -6 -9zM737 573q8 0 19 -2q20 -6 31.5 -24.5t5.5 -38.5 l176 -156l30 -28l-38 77q-12 23 -58 97q-39 66 -57 110v2q-53 -20 -109 -37zM840 1024l80 -150q22 -40 36 -65q16 131 66 299l-82 -37zM946 647q9 -24 25 -53q41 59 65 90l-10 -4q-4 -16 -16 -29q-29 -25 -64 -4zM1030 496l10 -21q39 61 41 65.5t9 24.5l8 25zM1065 813l10 4 v8q-4 4 -8 11q-2 -12 -2 -23zM1081 913q55 78 142 232l-39 31q-2 -2 -4 -2l-41 -17q4 -16 0 -33q-38 -119 -58 -211zM1085 389l7 -10q0 4 4 12q-6 -2 -11 -2zM1120 721q4 -2 8.5 -5t8.5 -9q0 12 2 22zM1147 266l63 -143q2 2 2 4l11 20q-6 10 -9 23q-3 17 -34 152 q-2 -4 -9 -15zM1233 766q14 -17 12 -37l-4 -106q0 -37 11.5 -105.5t17.5 -103.5l22 -105q76 203 142 576q-10 -4 -23 -11q-23 -139 -43 -223q-4 -20 -22.5 -32.5t-40 -7.5t-33.5 23.5t-6 41.5q14 61 26 139l-49 -29l-2 -4q-2 -8 -8 -16zM1274 932q0 -2 2 -4l39 20 q12 76 18 119l-22 14l-13 -18h2q16 -12 21.5 -34.5t-6.5 -41.5zM1430 995q12 4 24 6q-8 2 -16 7l-6 2z" />
<glyph unicode="," horiz-adv-x="333" d="M120 -56.5q-5 21.5 7 42.5q33 53 42 89t11 113q0 23 16.5 37.5t39 14.5t37 -16.5t14.5 -39.5q-4 -88 -16.5 -137t-53.5 -119q-10 -18 -31.5 -23t-41 6t-24.5 32.5z" />
<glyph unicode="-" d="M164 655.5q0 22.5 14 39t37 16.5h39q16 16 39 16h26q12 0 30 1t26 1q55 0 90 -2q4 0 21.5 -1t27.5 -3q23 -2 35 -8q33 -18 33 -53q-2 -29 -27 -46q-10 -8 -27 -10q-6 -2 -14 -2q-14 -2 -37 -2q-37 -2 -98 0q-27 0 -66 1t-63 1h-31q-23 0 -39 14.5t-16 37z" />
<glyph unicode="." horiz-adv-x="471" d="M106 168q31 66 109 61q41 1 84 -26q55 20 92 -10.5t33 -102.5q-4 -55 -37 -166q-6 -20 -25.5 -30.5t-42.5 -4.5q-37 12 -36 50q-25 -14 -52 0q-80 39 -116.5 104.5t-8.5 124.5zM202 108.5q1 -10.5 20.5 -33t58.5 -42.5q12 -6 20 -21q10 35 14 60q-20 0 -34 14l-5 2 q-20 6 -30 23q-20 12 -35 12h-8q-2 -4 -1 -14.5z" />
<glyph unicode="/" horiz-adv-x="837" d="M115 -51q61 225 100 353t113.5 316.5t160.5 337.5q55 92 134 201q4 6 12 23q14 35 16 41q16 29 33 43q20 16 45 16q27 -2 45 -23q18 -16 17 -40q0 -6 -3 -13q-2 -4 -4 -9t-6 -13q-6 -10 -18 -33l-60 -96q-92 -150 -98 -162l-131 -258q-51 -102 -105.5 -247.5 t-76.5 -272.5q-6 -25 -29 -37l-43 -156q-6 -20 -25.5 -31.5t-40 -5.5t-31.5 26t-5 40z" />
<glyph unicode="0" horiz-adv-x="1224" d="M128 318.5q-13 78.5 1 151t49 144.5q55 193 203 283q176 104 426 31q74 -6 135 -33q147 -66 203 -225q18 -37 26 -76q43 -221 -114 -399q-125 -162 -346 -220q-23 -6 -95 -6h-69q-221 12 -326 146q-16 25 -31 51l-6 6q-43 68 -56 146.5zM260 455q-12 -162 23 -236 q80 -109 222 -131t277 39q115 49 191 133q59 76 80 162q20 88 4 168q-4 20 -10 39q-29 57 -87.5 104t-123.5 74l-48 16q-98 6 -217 -39q-16 -29 -51 -26q-6 0 -18 2q-12 0 -25 4h-4q-14 2 -22 2l-5 -4q-2 -2 -10 -8q-10 -8 -16 -13q-88 -63 -141 -163q-14 -57 -19 -123z" />
<glyph unicode="1" horiz-adv-x="966" d="M392.5 845q5.5 22 23.5 34q195 125 289 122q63 0 96 -47q27 -35 28 -94q2 -63 -28 -221q-35 -166 -39 -233q-12 -168 -14 -308q84 4 118 4q23 0 38.5 -15t15.5 -37.5t-15.5 -38t-38.5 -15.5q-31 0 -118 -4h-19q0 -2 -2 -4q-33 -23 -76 -11q-14 4 -20 9h-4q-76 10 -80 12 l-8 4q-2 0 -7 2q-12 8 -18 19q-12 20 -6 43q6 20 24 30q10 6 23 8h10q6 0 21 -2q33 -6 39 -6h16q2 143 14 318q4 74 41 248q29 143 27 194q-2 27 -8 37q0 2 -10 2q-63 2 -232 -107q-18 -12 -39.5 -7t-34 23.5t-7 40.5z" />
<glyph unicode="2" horiz-adv-x="1157" d="M291 1025.5q-2 21.5 14 37.5q66 74 165 157t200 132q133 68 233 49q129 -23 184 -172q70 -182 -63 -486q-20 -49 -45 -94q-23 -47 -51 -96l-47 -82l-50 -82q-31 -53 -38 -65l-146 -248q29 -2 152 12q143 16 196 14q23 0 37.5 -16t14.5 -38.5t-16.5 -37t-39.5 -14.5 q-43 2 -180 -14.5t-184 -12.5q-29 4 -54 15q-39 16 -53 51q-18 43 21 82l14 12q31 47 84 139t63 109l39 65l50 82l45 78q27 49 49 94t41 90q117 264 63 406q-35 92 -104 104q-66 12 -168 -39q-90 -45 -181.5 -121.5t-152.5 -142.5q-14 -16 -35.5 -18t-38 13.5t-18.5 37z" />
<glyph unicode="3" horiz-adv-x="1296" d="M216 859.5q-5 21.5 7 39.5q59 90 207 190.5t301 153.5q184 63 311 33q164 -41 201 -221q23 -100 -20 -209q-49 -129 -142.5 -246t-210.5 -199q86 -72 91 -174q4 -154 -166 -241q-106 -53 -265 -74q-20 -2 -37.5 11.5t-20.5 35t10.5 38.5t35.5 21q139 16 230 64 q109 55 106 141q-2 72 -84 117l-18 -8q-80 -41 -156 -58q-68 -14 -109 -2q-35 10 -52 39t-13 70q10 61 82 84q45 14 110 12q78 -2 148 -20q119 72 216 186.5t146 239.5q31 80 17 151q-25 113 -125 137q-96 25 -250 -28q-141 -47 -274 -139q-129 -90 -179 -162 q-12 -18 -33.5 -23.5t-40 7t-23.5 34z" />
<glyph unicode="4" horiz-adv-x="1091" d="M274 389q-4 16 0 37q2 10 9 25q8 25 24 65q27 61 82 174l86 182q45 96 51 111q8 20 27.5 29.5t40.5 1.5h2q12 12 31 16q23 2 40 -11t21 -34q37 -256 57 -600q98 -4 246 -4q23 0 38 -15.5t15 -38t-15 -38t-38 -15.5q-141 0 -239 2q6 -123 10 -270q0 -23 -14.5 -39t-37 -16 t-39 14.5t-16.5 36.5q-4 154 -12 281h-12q-135 8 -215 22q-49 10 -80 23q-51 23 -62 61zM385 424q20 -8 51 -12q74 -14 201 -23h2q-16 274 -45 488l-23 -50l-86 -182q-66 -137 -79 -172q-14 -31 -21 -49z" />
<glyph unicode="5" horiz-adv-x="1165" d="M338 977q-2 51 8 72q14 33 57 47q25 8 62 14q59 6 156 4q49 0 262 -14q20 -2 35.5 -18.5t13.5 -38t-18.5 -37t-39.5 -13.5q-209 14 -256 15q-88 2 -141 -4q-18 -2 -33 -7v-16q2 -29 7 -76q2 -14 8 -82q6 -45 6 -59t2 -45t2 -47v-8l10 4q98 39 162 53q264 55 422 -162 q43 -59 55 -180q6 -63 -18.5 -114.5t-69.5 -85.5t-96 -55.5t-111 -31.5q-109 -23 -232.5 -6.5t-193.5 68.5q-16 14 -19 35.5t10 39t34.5 20.5t40.5 -9q45 -35 141 -48.5t201 5.5q104 20 158.5 65t48.5 109q-8 90 -35 127q-117 160 -315 118q-55 -12 -144 -47 q-41 -16 -55 -22q-41 -12 -68 -2q-35 14 -41 51q-4 18 0 41q2 8 4 15t3 9.5t1 4.5v2q0 16 -2 46.5t-2 45.5q0 12 -4 53q-8 68 -10 82q-4 51 -6 82z" />
<glyph unicode="6" horiz-adv-x="1335" d="M309 436q-37 203 19 416q55 217 182 348q16 16 37.5 16.5t38 -15t16.5 -37.5t-14 -38q-109 -111 -158 -303q-49 -188 -16 -366q33 -184 143 -275q53 -43 121 -61q-6 92 10 215q29 197 146.5 297t252.5 80q63 -8 113.5 -46t73.5 -100q49 -131 -47 -305 q-51 -88 -136 -158.5t-182 -89.5q-82 -14 -155 -10h-2q-14 -4 -29 2q-135 14 -231 92q-143 117 -183 338zM786 109q49 2 103 12q70 12 137.5 67.5t106.5 126.5q74 129 41 215q-25 66 -103 78q-86 12 -170 -59q-84 -70 -106 -230q-19 -124 -9 -210z" />
<glyph unicode="7" horiz-adv-x="886" d="M218 1140.5q-3 22.5 10 39t36 20.5q16 2 96 19l152 28q96 16 154 21q39 2 63 0q39 -4 62 -23q70 -55 38 -182q-6 -33 -24 -82l-19 -57q-121 -502 -151 -840q-2 -23 -19.5 -37t-39 -12t-36 19.5t-12.5 37.5q33 348 156 856q4 16 21 68q16 45 22 71q12 55 0 72q-4 2 -8 2 q-16 2 -45 0q-53 -4 -144 -18l-149 -29q-84 -18 -105 -20q-23 -2 -39 11t-19 35.5z" />
<glyph unicode="8" horiz-adv-x="1148" d="M78 475q-88 121 22 359q43 92 95.5 157.5t132.5 126.5q33 25 63 0q98 63 180 80q152 33 284 0t198 -123q76 -98 37 -219q-39 -123 -187 -240q-78 -59 -160 -106q92 -31 125 -92q31 -59 2 -135q-23 -55 -75 -108.5t-117 -92.5q-156 -92 -254 -47q-66 31 -72 115 q-6 70 39 182q12 31 21 57l2 2q-250 -35 -336 84zM164 539q53 -72 258 -39q193 31 416 202q123 94 149 185q23 70 -18 125q-45 59 -141.5 83.5t-231.5 0.5q-37 -8 -77 -27.5t-60 -32.5l-74 -51q-26 -18 -53 -4q-80 -76 -133 -193q-86 -180 -35 -249zM459 158q0 -23 10 -27 q18 -8 60 2t95.5 41t93.5 72t54 78q10 27 2 45q-14 25 -65 41q-31 10 -146 6l-39 -39l-4 -4q-2 -2 -6 -19q-8 -23 -25 -63q-35 -86 -30 -133z" />
<glyph unicode="9" horiz-adv-x="1001" d="M207 829q-27 125 41.5 215.5t185.5 137.5q100 41 223 36.5t207 -59.5q29 -20 23 -55q14 -15 14 -35q2 -86 -2 -186q18 0 33 -11q18 -12 21 -33.5t-9 -39.5l-14 -21l-17 -28q-10 -12 -20 -25q-2 -55 -8 -139q-20 -330 -21 -475q0 -23 -15 -38.5t-38 -15.5t-38 15.5 t-15 38.5q0 150 20 481l4 45q-137 -61 -301 -33q-102 16 -179 72.5t-95 152.5zM309 850q12 -55 61.5 -92t129.5 -49q76 -12 151 0q76 14 121 45q8 6 16 14q8 168 7 297v10q-57 35 -147.5 37t-174.5 -31q-90 -35 -134 -95t-30 -136z" />
<glyph unicode=":" horiz-adv-x="479" d="M272 709q6 45 41 98q12 18 34 23.5t40 -7.5q15 -10 21 -24q27 -18 24 -49q-6 -61 -29 -99q-8 -12 -19 -21t-33.5 -18.5t-45.5 6.5q-43 27 -33 91zM279 246q-2 10 2 20l4 8q2 4 6 9q2 6 10 16q14 29 16 49q2 23 18.5 37t39 12t37 -18.5t12.5 -38.5v-2q16 -31 -4 -59 l-29 -37q-6 -10 -12 -19q-2 -4 -4 -6q-2 -4 -4 -6l-4 -4q-8 -6 -21 -10q-27 -8 -47 8t-20 41z" />
<glyph unicode=";" horiz-adv-x="460" d="M221 -73.5q0 22.5 15 38.5q10 10 18 21.5t12 17.5t11.5 21.5t9.5 19.5t10 27.5t12 29.5q8 20 27.5 29.5t40 1.5t30 -27.5t1.5 -39.5q-2 -6 -11.5 -31t-11.5 -31t-11 -25.5t-18 -29.5l-16 -27q-12 -14 -26.5 -30.5t-37 -16.5t-39 14.5t-16.5 37zM264 788q2 9 6 17 q-8 29 15 49q14 16 36.5 16t36.5 -16q51 -49 55.5 -110.5t-32.5 -92.5q-25 -23 -55 -20q-37 2 -58 37q-23 41 -4 120z" />
<glyph unicode="&#x3c;" horiz-adv-x="1257" d="M229 369q-18 29 0 59q4 8 13 16l24 21q20 14 66 41q78 47 110 63q25 12 97 56q61 37 106 55l129 53q94 39 135 58.5t103.5 60.5t105.5 88q14 16 37 16t39 -14t16 -37t-14 -39q-49 -53 -122 -100t-119 -69.5t-144 -63.5l-125 -51q-35 -16 -94 -50q-74 -43 -100 -57 q-31 -14 -97 -55l21 -4q45 -6 268 -25q428 -37 481 -51q20 -6 31.5 -25.5t5.5 -40t-25.5 -32t-39.5 -4.5q-43 12 -463 47q-195 16 -273 26q-61 8 -96 17l-37 10q-27 12 -39 31z" />
<glyph unicode="=" horiz-adv-x="1120" d="M286 214.5q-3 21.5 10 38.5t36 21q57 6 155 31q115 29 166 37q41 6 93.5 10t89 5t98 2t84 1t39 -15t16.5 -36.5t-15.5 -38t-35.5 -16.5q-29 0 -88.5 -1t-94 -2t-82.5 -5t-87 -10q-45 -6 -158 -33q-104 -27 -168 -35q-20 -2 -37.5 11.5t-20.5 35zM410 509.5q2 22.5 18 37 t39 12.5q233 -16 401 14q23 2 41.5 -10t21.5 -33.5t-9.5 -40t-32.5 -22.5q-184 -33 -430 -14q-23 2 -37 18t-12 38.5z" />
<glyph unicode="&#x3e;" horiz-adv-x="1382" d="M425 346.5q7 20.5 26 30.5q70 35 155 72l144 59l159 63l148 56q72 29 117 51q-80 25 -211 59q-150 39 -260.5 75t-213.5 81q-20 10 -27 30.5t2 41t30 27.5t41 -1q102 -47 217.5 -83t262 -74.5t232.5 -65.5q2 -2 4 -2q4 2 19 -2q51 -8 63 -51q8 -31 -12 -62 q-10 -14 -31 -28q-25 -18 -69 -41q-49 -25 -127 -54q-45 -18 -148 -57l-160 -61l-139 -58q-82 -35 -147 -69q-20 -10 -41 -3t-31 26.5t-3 40z" />
<glyph unicode="?" horiz-adv-x="1343" d="M186 1309l13 22q35 137 131 225q80 74 215 137.5t272 84.5q68 16 140.5 10t134 -26.5t112.5 -72t76 -126.5q39 -125 -1 -246t-132 -258l-82 -115l-90 -127q-39 -55 -64 -104q-8 -16 -14 -33q-20 -53 -41 -217q2 -18 2 -41t-14.5 -39t-37 -16t-38.5 14t-16 37v31 q-2 8 -2 16v4q0 119 26 201q14 41 37 86q33 74 111 209l88 153q123 227 96 391q-14 92 -84 125q-68 33 -182 15q-104 -14 -214 -63.5t-173 -98.5q-90 -74 -156 -195q-4 -12 -6 -28q-6 -23 -23.5 -35t-40.5 -8q-27 5 -39 30q-20 27 -4 58zM605 -6.5q7 20.5 28 30t41 1.5 l47 -17l8 -4l16 2l64 4q23 0 39 -14t16 -36.5t-14 -39t-37 -16.5l-57 -4q-25 -2 -37 0q-14 0 -37 8l-45 18q-20 6 -29.5 26.5t-2.5 41zM610 97.5q6 21.5 25 32.5t39 5q76 -18 182 -4q20 2 37.5 -11.5t21 -35t-10 -38.5t-36.5 -21q-125 -16 -219 8q-23 6 -34 24.5t-5 40z M659.5 249.5q8.5 20.5 28 30t39.5 1.5l37 -15l35 23q18 10 39.5 4t33 -24.5t5 -40t-24.5 -33.5q-14 -6 -37 -23q-23 -14 -41 -16q-20 -2 -45 10q-27 10 -39 16q-20 8 -29.5 27.5t-1 40z" />
<glyph unicode="@" horiz-adv-x="1466" d="M-53 631q2 68 39 110q6 66 20 191q6 53 12 69q6 27 27 39.5t43 6.5q2 2 4 6q8 8 11 14t7.5 20.5t10.5 28.5q6 18 16 33q2 12 10 22q72 98 193 160q121 59 240 39q49 -8 75 -35q4 -2 7 -4q8 8 16 15q59 37 149 38q96 4 154 -32q53 -35 84 -123q6 -16 14 -51q8 -2 23 -2 q8 -2 36.5 -2t45.5 -3q63 -4 104 -32q57 -37 78 -113q25 -90 -51 -180q-8 -10 -23 -25l-16 -16q4 -4 33 -25q80 -57 96 -102q25 -68 6 -125q-16 -45 -59 -82q-12 -12 -33 -27l-29 -20q-20 -14 -22 -21q-4 -6 6 -26q2 -6 16.5 -33t22.5 -45q27 -66 0 -127q-29 -68 -127 -133 q-47 -31 -115 -33q-74 -2 -82 -4q-39 -6 -88 -22l-84 -29q-106 -33 -221 -10q-33 8 -129 53l-59 29l-15 6q-29 -14 -51 -15q-57 0 -122.5 33t-100.5 78q-55 74 -45 149q2 10 6 25q0 2 2 9t2 11q4 12 2 19q0 10 -3 18.5t-9 16.5l-13 16q-4 4 -18 19l-20 20q-80 84 -76 203z M53 606q2 -57 45 -104q2 -2 18.5 -17.5t22.5 -25.5l21 -25q14 -18 21 -37.5t12 -42.5q4 -27 -5 -59q-2 -4 -3 -11.5t-3 -9.5q-2 -10 -2 -16q-4 -31 25 -68q18 -27 60 -47t73 -22l10 4q33 16 62 12q8 -2 22 -8l21 -10l59 -29q86 -41 104 -43q90 -18 172 6q4 0 78 27 q55 18 103 29q16 2 100 4q37 0 59 16q70 47 86 86q8 20 0 45l-16 33q-16 29 -20 39q-31 63 -9 117q14 31 58 61l30 20l25 21q23 18 29 37q6 20 -4 53q-6 14 -60 53q-37 25 -49 35q-35 31 -39 65.5t33 73.5q4 6 18.5 21.5t22.5 25.5q41 47 31 82q-10 39 -33 54q-18 12 -55 16 h-39q-31 0 -41 2q-63 4 -97 33q-10 10 -18 31q0 6 -4 18l-12 43q-18 53 -41 68q-29 18 -93 16q-61 -2 -96 -23l-10 -16q-29 -45 -72 -47q-35 -2 -57 29q-8 10 -12 28l-4 11q-6 2 -17 4q-129 23 -258 -80q0 -31 -24 -47q-49 -31 -62 -62q-2 -2 -5 -14t-7 -22.5t-13.5 -26 t-19.5 -29.5q-16 -18 -33 -29q2 -4 2 -8v-18q0 -37 -8 -142q-4 -53 -41 -88l-2 -16q-2 -20 -4 -28.5t-4 -12.5q-2 -8 -8 -16q-8 -12 -23 -19zM152 582q0 82 30.5 149.5t83.5 130.5q78 90 184.5 149.5t204.5 57.5q39 0 70 -6q61 -10 88 -39q15 -16 27 -41q12 8 26 8 q27 0 43 -20q4 -8 9 -15l4 -16q4 -12 6 -33q4 -33 8 -86q8 -121 6 -159q-4 -63 -22 -121q2 -39 8 -111l8 -92q2 -23 -12.5 -39t-37 -18t-39 12t-18.5 37q-2 18 -2 39q-18 -18 -36 -35q-150 -127 -359 -68q-160 45 -235 164q-45 70 -45 152zM258 588q51 137 76 188 q-76 -96 -76 -188zM303 465q20 -25 47 -45q2 0 2 2q-16 16 -16 41q0 18 10 43l10 20q4 8 6.5 13.5t4.5 7.5l26 102l-57 -153q-8 -23 -33 -31zM528 356q78 -8 142 25q-2 4 -2 10q-43 -14 -86 -18q-10 -8 -23 -13zM565 567q4 4 10 6h3q20 104 71 269q-49 -90 -84 -275z M649 958q4 -2 6 -4q10 -6 17 -14q14 14 37 14q18 0 30 -8l-4 4h-2q0 2 -8 4t-18 4q-23 4 -52 5h-4q-2 -2 -2 -5z" />
<glyph unicode="A" horiz-adv-x="880" d="M4 195q-23 60 -23 122q0 80 39 162q70 147 205 246q83 59 175 88q59 18 120 18q35 1 70 -5q98 -16 168 -95q20 6 39 -4q12 -8 18 -20q4 -6 6 -15q2 -4 4 -12q2 -12 2 -29v-23q0 -35 -4 -73l-2 -16q0 -20 -1 -120v-84.5v-54.5q1 -38 4 -111t10 -130v-6q0 -19 -12 -34 q-14 -17 -36 -19q-4 0 -6 -1q-18 -1 -34 11q-18 14 -19 37q-6 68 -10 137q-55 -74 -143.5 -121t-184.5 -57q-27 -3 -53 -3q-96 0 -180 40q-108 51 -152 172zM88 307q2 -39 14 -76q18 -45 52 -77q-6 20 4 36l4 11q-10 0 -19 6q-20 8 -27 28.5t1 38.5q-20 10 -29 33zM90 346 q27 62 62 154q-51 -78 -62 -154zM209 115q37 -18 82 -23q-24 17 -24 41q0 9 3 19q18 55 47 114q-41 -72 -65 -121q-12 -29 -43 -30zM289 563l22 31q18 21 40 21q13 0 28 -7q23 51 39 99q-45 -14 -88 -41zM348 88l29 4q12 0 24 2q-6 20 7 39l63 107l68 112q25 43 54.5 103.5 t45.5 111.5q8 20 27.5 30.5t40.5 4.5l8 -4v20v13q-14 6 -25 18q-59 72 -158 76q0 -8 -2 -14q-18 -66 -51 -138q25 49 43 93q8 20 28.5 28t41 0t29 -28.5t0.5 -40.5q-31 -76 -134 -258q-84 -154 -114 -248q-6 -20 -25 -31zM549 152q80 51 110 124q21 49 35 123 q-41 -88 -137 -237q-4 -6 -8 -10z" />
<glyph unicode="B" horiz-adv-x="942" d="M76 1100q-2 8 -2 15q0 12 6 24l-2 10q-2 20 10 38.5t34 21.5q4 1 8 1q18 0 32 -10q18 -12 22 -35q29 -162 34 -379q86 111 237 138q41 7 77 7q80 0 142 -34q86 -45 141 -127t72 -178q11 -64 11 -123q0 -222 -159 -365q-177 -159 -483 -159h-4q-29 0 -45 24q-20 0 -35 13 q-8 0 -18 2q-23 6 -35 26q-4 4 -6 13q-19 47 -19 127v8q2 18 4 57t2 57q0 145 15 242v127q-2 18 -2 37q-2 37 -4.5 107.5t-3.5 112.5t-9 99.5t-20 102.5zM240 399l2 -18q29 55 111.5 204.5t123.5 233.5q-2 0 -6 -2q-20 -2 -39 -8q2 -12 -2 -25q-47 -145 -190 -385zM256 184 q4 -72 4 -133q90 0 170 19q-6 23 6 43l125 186q88 129 131 199q12 18 34 23t40 -7q23 -14 25 -39q0 47 -11 100q-12 72 -53 133.5t-102 94.5q-16 8 -35 12q0 -10 -6 -22q-49 -100 -154 -287q-106 -195 -160 -301q-4 -12 -14 -21zM313 134q-2 8 -2 15q0 13 6 25l287 477 q10 19 32 25q7 2 13 2q13 0 27 -8q20 -12 25 -33t-7 -39q-256 -428 -282 -477q-12 -19 -33 -25q-8 -2 -15 -2q-14 0 -26 8q-20 12 -25 32zM776 432q6 -2 12 -6q2 18 3 37q-2 -12 -9 -23z" />
<glyph unicode="C" horiz-adv-x="806" d="M-78 870q0 362 121 617q35 84 80 151q43 68 111.5 126.5t142.5 84.5q48 16 91 16q40 0 77 -14q86 -35 137 -141q59 -129 78 -324v-5q0 -20 -12 -35q-14 -17 -35 -19q-31 -2 -49 23q-19 11 -23 34q-14 86 -57 158t-99 109q-45 28 -89 28q-80 0 -160 -90q-53 -59 -97 -145 q-63 -150 -89 -333q-15 -107 -14 -214q0 -75 7 -149q27 -242 129 -424.5t279 -264.5q18 -10 26 -29.5t0 -39.5q20 -8 28.5 -27.5t0.5 -40.5q-6 -20 -26 -30q-11 -5 -23 -5q-9 0 -19 4q-70 25 -107.5 40.5t-95 53.5t-94.5 85q-106 133 -162.5 349t-56.5 451z" />
<glyph unicode="D" horiz-adv-x="1177" d="M199 197q-36 79 -36 151q1 72 37 138q72 130 218 176q55 19 115 19q26 1 53 -3q90 -12 162 -62l-17 80q-54 275 -54 532q0 94 7 185q10 125 41 240q23 78 51 129q41 72 96 92q29 11 55 11q59 0 105 -58q43 -53 68 -158q29 -129 30 -293v-16q0 -200 -47 -470 q-49 -280 -127 -552q66 -135 152 -199q16 -14 19 -35.5t-9 -40.5q-12 -14 -31 -18q-4 -14 -14 -25q-16 -14 -38.5 -13t-37.5 16q-39 43 -75 112q-29 -129 -115 -162q-57 -22 -133 -22q-73 0 -164 20q-227 47 -311 226zM276 387l60 107q-47 -47 -60 -107zM297 238 q41 -82 125 -125q0 6 4 12q27 55 88 164.5t90 167.5q10 18 30.5 25t40 -3t27 -30.5t-3.5 -40.5q-27 -55 -88 -165t-90 -165l10 -4q27 -4 50 -8q-8 18 -2 38q16 55 59 146q43 92 57 133q8 23 27.5 32t40.5 3q23 -8 31 -27q-57 141 -185 174q18 -16 18 -35q0 -14 -10 -30 q-39 -66 -129 -250q-8 -20 -29.5 -27.5t-41 1.5t-26.5 30.5t3 40.5q90 188 133 258q8 14 21 20q-25 2 -49 -2q-2 -10 -6 -20q-12 -20 -72 -127t-94 -162q-10 -18 -29 -24zM752 68h6l4 12l10 29l-16 -37zM780 309q18 2 33 -6q10 -6 16 -14l5 8v18q-18 10 -25 31q-6 19 -12 35 q4 -14 0 -31zM801 1108q12 -188 49 -391q12 -66 27 -127q4 18 18 96t18 102l17 95q10 70 14 102.5t13.5 93t13.5 101.5l6 94q4 53 6 102q4 100 4 163q0 42 -2 69q-6 78 -20 116q-7 17 -11 23q-10 -8 -24 -27q-27 -37 -58 -106q-53 -127 -65 -209q-11 -65 -11 -159 q0 -63 5 -138z" />
<glyph unicode="E" horiz-adv-x="1607" d="M-23 496q1 16 11 28q-8 18 -2 37q8 20 27.5 30.5t39.5 4.5q33 -12 74 -21q-10 82 -10 167q0 141 28 290q66 348 240 565q181 230 413 231q24 0 48 -3q117 -12 213 -68l4 -2q180 -78 289 -381q55 -137 118 -426q8 -29 17 -53q43 -135 51 -170q16 -66 21 -102q3 -19 3 -34 q0 -7 -1 -14q-4 -39 -29 -57l-16 -8q-6 -43 -27 -68q-21 -24 -53 -24q-13 0 -27 4l-16 6q-156 6 -351 10q-164 2 -238.5 2t-240.5 -1t-239 -1q66 -219 184 -366q20 -12 45 -23q20 -10 27.5 -30.5t-2.5 -40.5q-10 -21 -30 -28q-10 -3 -19 -3q-11 0 -21 4l-8 4q-29 -4 -49 18 l-15 19q-213 137 -286 446q-61 0 -121 2q-20 0 -36 16.5t-16 39.5zM262 933q-2 -38 -2 -76q0 -154 33 -302q75 -5 164 -5q67 0 143 3q127 6 580 49q12 0 65 2h45q37 0 60 2h63q-2 33 -6 74q-12 119 -33 215l-8 31l-39 155q-39 154 -70 242l-6 16l-37 86q-84 164 -202 236 q-65 26 -132 26q-123 0 -255 -85q-92 -59 -168 -148.5t-117 -181.5q-68 -145 -78 -339z" />
<glyph unicode="F" horiz-adv-x="882" d="M-72 478v6q0 18 12 34q14 18 35 19h5q10 37 49 38q74 4 84 5q0 76 2 149q4 150 41 356q29 176 77 324l9 25l6 18q49 147 90 221q74 133 176 182q57 32 108 32q20 0 40 -5q10 -4 22 -8q29 -12 53 -35q53 -47 78 -141q23 -87 23 -175q0 -61 -11 -124q-16 -82 -45 -156 q-23 -61 -67 -160q-16 -31 -51 -30q-16 -12 -32 -12l-34 14q-16 14 -18 36.5t12 38.5q55 63 90 150q33 88 39 160q3 27 3 57q0 40 -5 86q-8 80 -33 135q-18 43 -43 58q-20 6 -47 -2q-16 -4 -33 -13q-16 -10 -35 -24q-125 -98 -221 -461q-27 -104 -47 -211q-33 -211 -37 -475 q12 2 24.5 5t22.5 -1q88 18 154 27q23 2 40 -12.5t19 -36t-12 -39t-35 -19.5q-74 -8 -213 -39q0 -43 2 -98q4 -139 23 -391q2 -23 -14 -40q-14 -16 -36 -18h-5q-19 0 -33 14q-16 16 -19 35v3q-6 10 -6 20q-14 227 -16 385q-2 35 -2 66q-72 -14 -129 -21q-23 -2 -40.5 12 t-19.5 36z" />
<glyph unicode="G" horiz-adv-x="972" d="M18 713q43 141 187 276q137 127 303 193q102 40 189 40q58 0 110 -18q16 -6 34.5 -17t37 -24.5t22.5 -15.5q18 -10 23 -31q2 -7 2 -14q0 -15 -8 -29q-10 -16 -31 -22q-4 -35 -13 -88l-45 -269q-10 -53 -20 -133l-16 -125q-6 -45 -19 -100q-14 -53 -31 -96 q-37 -94 -112 -174q-78 -82 -219 -177q-13 -8 -27 -8q-7 0 -13 1q-22 5 -34 23.5t-7 40t23 34.5q135 90 195 155q66 68 96 144q29 72 53 256q-31 -45 -63 -80q-131 -140 -303 -140q-37 0 -76 7q-119 20 -182 92l-6 8q-4 2 -9 2q-20 6 -30 25.5t-4 39.5q-24 55 -24 116 q0 52 17 108zM141 502q4 -8 11 -15q-2 16 6 31q27 47 110 248q28 66 51 111q-92 -119 -178 -375zM221 440q25 -8 51 -12q29 -6 54 -6q-6 0 -13 4q-20 6 -29.5 26.5t-0.5 41.5q104 278 104 280l-20 -49q-86 -209 -115 -260q-10 -18 -31 -25zM315 944q21 -20 13 -49 q33 61 69 111q-43 -29 -82 -62zM338 422q123 2 221 106l2 4q-2 2 -4 3q-23 9 -31 32q-25 -20 -55 -8q-33 12 -33 49l-57 -151q-10 -31 -43 -35zM455 1040q16 -2 28 -12q11 -8 17 -18q20 37 43 71q-43 -16 -88 -41zM625 1106q16 -12 20 -35q20 8 41 0t29 -31l6 13 q10 33 47 34q-2 8 0 17q-31 10 -69 10q-34 0 -74 -8z" />
<glyph unicode="H" horiz-adv-x="673" d="M-29 1171q-4 10 -4 20q1 11 5 21q8 21 28 29q10 4 20 4t20 -4q20 -8 30 -29l2 -4q33 -8 39 -43q16 -117 22 -288q0 -29 2 -113t4 -129q72 72 160 90q28 6 54 6q92 0 155 -80q39 -47 61 -125q31 -68 45 -155q15 -89 15 -195q0 -98 -13 -211q-2 -23 -19 -36 q-15 -11 -34 -11h-6q-20 2 -34.5 18.5t-12.5 36.5q-31 14 -31 45q0 8 2 17q13 63 17 165q1 21 0 43q0 83 -13 177q-6 39 -16 69q-43 94 -125 113q-29 4 -55 -20q-33 -29 -62 -90q-51 -111 -63 -226q-2 -16 -2 -39v-22v-21v-41v-14v-2v-4v-2v-2v-2q-2 -8 -6 -17 q-8 -16 -27 -24q6 -18 2 -35q-4 -20 -18 -35q-18 -14 -41 -14q-14 0 -25.5 6t-15.5 14l-4 6q-4 4 -7 11q-2 4 -2 10q-2 6 -2 14q-4 18 -4 45q-4 43 -4 87q0 29 2 59q2 14 2 28v11q0 25 4 194q1 80 1 148.5t-1 126.5q-6 324 -45 419z" />
<glyph unicode="I" horiz-adv-x="905" d="M-66 1400q6 73 27 142q18 49 80 129q61 80 129 139q88 76 162 78h7q101 0 140 -121q15 -45 15 -100q0 -90 -41 -205l-9 -20l84 55q94 59 160 80q39 13 70 13q55 0 84 -42q17 -26 17 -57q0 -14 -3 -29q-6 -33 -31 -73q-35 -63 -114 -152q-53 -61 -133 -141l-89 -88 q-43 -45 -98 -119l-96 -131q-14 -16 -35.5 -19.5t-40.5 9.5q-18 14 -20 38q-4 -4 -9 -6q-20 -8 -40.5 -1t-30.5 28l-51 106q-37 74 -55.5 116t-44.5 115q-24 73 -32 128q-4 32 -5 69q1 28 3 59zM43 1434q55 123 117 217q-80 -92 -97 -146q-14 -34 -20 -71zM57 1214 q8 -31 23 -65q86 268 119 358q-59 -109 -119 -266q-6 -18 -23 -27zM160 561v6q0 19 12 34q14 17 35.5 19.5t39 -12t19.5 -35t4 -45.5v-4q10 -137 13 -381v-6v-59v-10v-2q-4 2 -11 2q-33 2 -54 8t-29.5 18t-10.5 19.5t-2 19.5q-12 307 -12 387q-2 25 -4 41zM195 899l22 -47 q2 -6 4 -14l17 22q-4 2 -7 2q-22 14 -26 41q-6 -2 -10 -4zM254 1602q18 4 35 -3q20 -6 29.5 -26.5t0.5 -40.5l-47 -133q16 2 33 -6q4 -2 6 -4q6 14 20.5 52t20.5 56q35 99 35 171q0 38 -10 67q-2 8 -4 14q-4 -10 -15 -18q-55 -55 -104 -129zM315 1112q22 14 47 4q0 16 7 29 l98 180l-84 -65q-8 -27 -10 -52q-4 -31 -31 -43z" />
<glyph unicode="J" horiz-adv-x="598" d="M-2 64q8 20 28.5 28t41.5 0q56 -26 110 -26q11 0 22 2q64 6 99 53q31 43 41 194q3 45 3 99q0 26 -1 55q-2 16 -25 154q-18 104 -20 159q-4 74 -4 154t2 191.5t2 154.5q-18 -2 -35 -4h-14q-39 -10 -55 -12q-20 -6 -39 6t-24 33.5t7.5 40t34.5 22.5q16 4 71.5 20.5 t86.5 24.5q57 14 96 19q20 3 37 3q31 0 53 -10q8 -4 12 -8q18 -12 23 -33q1 -7 1 -13q0 -22 -17 -38q-8 -6 -18.5 -10t-29.5 -6q-8 -2 -16 -3t-12 -1h-6q-29 -8 -50 -13v-8v-2q0 -59 15 -258q18 -250 24 -366q6 -109 7 -191l2 -8q12 -87 12 -157q0 -114 -31 -185 q-84 -186 -323 -203h-5q-20 0 -34 14q-17 15 -19 35v13q-12 4 -24 10q-20 8 -29 28q-4 11 -4 22q0 10 4 20z" />
<glyph unicode="K" horiz-adv-x="888" d="M160 -2q0 150 16 422q0 10 2 18v17q-6 16 -2 32q2 8 6 17q14 172 14 375v15q0 212 -32 386q-2 20 10 38.5t34 21.5q4 1 8 1q18 0 32 -10q18 -12 22 -35q30 -180 31 -440q0 -127 -8 -274q39 33 160 163q133 143 227 201q4 2 16 12l27 21q23 16 43 18q8 1 14 1q38 0 58 -37 q6 -15 6 -28q0 -24 -17 -46q-12 -14 -34 -29l-21 -10q-8 -4 -11 -5t-7 -3l-367 -342q152 -37 283 -115q18 -10 24 -31.5t-5 -40t-32.5 -24.5t-40.5 6q-145 84 -317 115q-2 2 -10 0l-6 -5q-16 -268 -17 -405q0 -23 -15 -38t-38 -15t-38 15t-15 38z" />
<glyph unicode="L" horiz-adv-x="772" d="M143 381v31q0 150 15 628q1 24 1 89t-1 171v54q0 131 8 215q0 4 2 10l-2 18q-2 20 11 38t35 21q4 1 7 1q17 0 31 -11q18 -13 22 -36q20 -164 24 -341q2 -76 2 -165q0 -118 -3 -259q-6 -247 -6 -335q0 -16 -3 -101t-3 -139q-1 -42 -1 -75t1 -58q2 -29 4 -45q0 -4 2 -8 q2 0 10 -2l16 -4l7 -2q41 -8 120 -13q10 -2 25 -2h8h10q84 -4 93 -4q78 -4 108 -14q23 -5 33 -25q6 -12 6 -26q0 -8 -2 -16q-5 -22 -25 -32q-12 -6 -25 -6q-7 0 -15 2q-20 6 -87 11q-18 0 -57 2t-49 2q-8 0 -41 -2q-45 -4 -70 -4h-21q-88 0 -130 31q-18 16 -31 47 q-6 18 -10 47q-8 45 -12 114q-4 53 -7 193z" />
<glyph unicode="M" horiz-adv-x="1159" d="M4 809v14v2v6q0 19 10 35q12 18 35 21q27 4 45 -15q127 54 224 53q51 0 94 -14q31 -12 57 -28q57 -20 98 -60q25 -23 45 -49q35 59 76 100q74 71 157 71q29 0 60 -9q76 -23 127 -111q39 -68 60 -170q25 -114 24 -213q0 -58 -8 -110q-14 -88 -57 -189q-4 -16 -50 -127 q-12 -33 -46 -33q-4 0 -9 1q-16 -2 -33 6q-18 12 -24 33.5t4 39.5q35 57 59 117q29 80 33 142q1 11 1 26q0 40 -8 109q-11 94 -36 178q-27 98 -63 141q-20 24 -41 24q-8 0 -15 -3q-49 -20 -82 -95q-33 -68 -47 -174q-8 -51 -12 -108v-29v-72v-24q-2 -8 -2 -12t-2 -11 q-2 -8 -6 -14q-8 -8 -19 -14l2 -6q0 -4 2 -9v-4q2 -2 2 -4v-8q0 -12 -6 -25q-8 -18 -28 -24q-18 -8 -37 0q-12 4 -21 12q-4 4 -6 8q0 2 -2 6l-2 3q-2 2 -4 6q-43 66 -43 190v21q2 47 10 96q-4 55 -12 98q-27 131 -88 182q-35 9 -74 9q-19 0 -39 -2q-121 -14 -180 -86v-2 q4 -61 8 -138l17 -153q22 -228 22 -396v-14q0 -23 -15.5 -38t-38 -15t-37.5 15.5t-15 37.5v33q-16 14 -19 37q-6 70 -16 381q-2 61 -4 104q-18 172 -25 250z" />
<glyph unicode="N" horiz-adv-x="1030" d="M125 729v6q0 19 10 34q12 17 35 22q33 4 51 -23q27 -14 29 -43q51 68 127 124t158 87q77 29 145 29q42 0 80 -11q121 -35 178 -166q25 -55 35 -124.5t12 -119.5v-15q0 -47 -10 -120q-12 -85 -18.5 -117t-29 -127t-26.5 -106q-4 -20 -22.5 -32.5t-40.5 -6.5q-23 4 -35 27 q-28 15 -28 43q0 7 1 14q2 16 37 164q27 109 33 164q6 47 6 89q0 121 -49 206q-43 78 -117 92q-16 3 -33 3q-55 0 -119 -30q-84 -38 -152.5 -112t-90.5 -145q-10 -27 -37 -35q0 -49 -2 -111q-10 -307 -10 -330q0 -14 -6 -24q-2 -20 -17.5 -34.5t-36.5 -14.5q-23 0 -38 15 t-15 38q0 78 6 222.5t6 257t-16 210.5z" />
<glyph unicode="O" horiz-adv-x="1042" d="M-18 793q8 147 92 208q48 37 110 43q15 1 30 1q45 0 85 -13q53 -18 102 -51q113 -73 156 -182q127 90 258 90q104 -2 152 -72q29 -43 29 -104q0 -46 -17 -103q-43 -147 -195 -319q-33 -39 -125 -135l-114 -127q-14 -19 -36 -21h-7q-18 0 -31 12q-10 6 -14 17 q-16 -10 -30 -10q-19 0 -36 18q-72 70 -119 120t-109.5 132t-99 153.5t-61.5 163.5q-21 76 -21 150q0 14 1 29zM88 788q0 -10 -1 -20q0 -41 7 -82q43 113 109 252q-39 -2 -68 -23q-43 -31 -47 -127zM147 524q13 -24 27 -49q23 57 84 191q63 139 94 215q0 2 2 4l-12 8 q-16 12 -35 20q-102 -225 -160 -389zM236 379l34 -45q57 147 170 397q8 14 21 23q-10 25 -27 49q-27 -70 -78 -182q-84 -184 -96 -215q-6 -18 -24 -27zM342 248l12 -12q33 86 97 219l96 198q-10 -4 -23 -4h-4q-104 -231 -162 -379q-4 -14 -16 -22zM428 158l37 -39 q6 -4 8 -10q35 41 90 98q-23 -10 -45 2q-20 8 -27.5 28.5t3.5 41.5q33 70 127 237q84 147 118 232q8 20 29 28q-82 -16 -152 -65q6 -2 11 -4q20 -10 28 -31t0 -39q-18 -41 -108 -227q-66 -137 -96 -226q-6 -16 -23 -26zM590 238l45 45q-4 2 -6 4q-7 2 -11 6zM764 432 q84 111 113 207q13 45 13 75q0 28 -11 44q-15 24 -60 24h-4q-10 0 -22 -2q8 0 16 -4q20 -8 28.5 -28.5t0.5 -40.5l-35 -76l12 -4q18 -12 24.5 -34t-3.5 -40z" />
<glyph unicode="P" horiz-adv-x="935" d="M84 732q-3 9 -4 18q0 12 6 22q20 47 51 98q2 62 2 121t-2 115q0 23 14.5 39t36.5 16h7q47 51 153 88l17 4q16 22 38 22q11 0 23 -5q45 8 87 8q114 0 204 -61q152 -102 170 -328q3 -31 3 -59q0 -154 -73 -255q-68 -92 -221 -174q-152 -80 -383 -112q-12 -199 -16 -326 q0 -23 -16.5 -37t-39 -14t-37 16.5t-14.5 38.5q2 63 33 572q6 115 8 157q-10 0 -20 6q-19 8 -27 30zM227 481q23 45 47 82q2 8 7 15q55 82 161 227q106 147 156 223q12 18 33.5 23.5t40 -7t23.5 -34t-7 -39.5q-51 -80 -162 -228l-90 -125q2 -23 -14 -38q-63 -74 -111 -166 q72 16 131 37q-12 2 -24 10q-16 14 -19.5 35.5t9.5 40.5l77 94q51 63 79 100t61.5 91.5t54.5 105.5q8 20 27.5 28.5t42.5 -0.5q14 -6 22 -18q-27 131 -117 190q-23 16 -51 27q6 -25 -10 -45q-55 -72 -145 -231q-106 -188 -146 -248q-12 -18 -31.5 -23.5t-38.5 4.5l-4 -80z M240 729q27 43 114.5 200.5t153.5 241.5q-35 0 -70 -8q-39 -78 -123 -209l-71 -114zM246 1042l30 50q-10 -10 -18 -25q-6 -8 -12 -14v-11zM659 565q45 35 72 72q23 31 35 68zM748 821q18 0 30 -10l4 -4q1 11 1 23q0 24 -3 51v10q-2 -2 -2 -4q-12 -33 -30 -66z" />
<glyph unicode="Q" horiz-adv-x="1095" d="M6 688q-10 48 -10 97q0 61 16 121q27 108 90 208q53 84 126 151.5t159 110.5t185.5 43t189.5 -53q111 -51 151 -172q22 -65 22 -137q0 -116 -56 -252q-47 -111 -127 -206t-181 -146l50 -148l32 -96l2 -6q6 4 31 19.5t40 22.5t37.5 19t45 19.5t45.5 11.5q22 4 43 4 q75 0 121 -53q34 -39 34 -84t-32 -96q-27 -43 -100.5 -112t-155.5 -124q-102 -66 -182 -84q-34 -9 -64 -9q-71 0 -117 48q-36 35 -36 82q0 25 10 53q16 47 69 109q14 16 82 90l33 37l-6 20l-33 96l-49 142q-45 -11 -91 -11l-179 43q-37 16 -68 39q-14 6 -22 19 q-84 72 -105 184zM117 682q0 2 18 129q16 113 23 182q-57 -115 -57 -212q0 -52 16 -99zM209 563l12 -8q-8 16 -6 35q12 57 33.5 193.5t43 245t54.5 198.5q-59 -45 -108 -107q28 -14 28 -47q0 -104 -24 -276q-29 -207 -33 -234zM281 528q39 -14 77 -16q-27 18 -22 51 q12 66 86 342q10 41 31 176q16 121 45 191q8 20 28.5 28.5t41 0t28.5 -29t0 -40.5q-23 -57 -39 -166q-23 -145 -33 -188l-22 -82l-23 -84q-10 -33 -20 -78t-17 -86q-4 -20 -18 -33q109 18 205 109q-2 0 -6 2q-18 4 -29.5 19t-11.5 34q-8 -18 -25.5 -27.5t-38 -3.5t-32 24.5 t-5.5 41.5q25 92 162 536q8 27 35 35q-35 8 -78 8q-25 0 -41 19q-61 -2 -123 -31q23 -16 23 -40q0 -10 -4 -21q-33 -90 -56 -193q-23 -104 -44 -247.5t-33 -209.5q-8 -35 -41 -41zM475 -117q-3 -8 -3 -14t3 -10q16 -16 46 -16q13 0 28 3q-2 10 -2 21q8 111 10 129 q-18 -20 -31 -37q-41 -47 -51 -76zM565 166h2h-2zM649 98q28 -15 28 -42q0 -9 -3 -19q-12 -47 -19 -148l25 15q-12 18 -6 41q22 84 28 164l-4 -5q-23 -12 -47 -2zM737 1192q23 16 49 8l13 -8q-20 41 -58 63q10 -18 4 -38zM815 1122q4 -2 8 -2q-2 6 -4 15v-5zM899 84 q23 25 31 39q14 22 14 37q0 10 -6 16q-10 12 -35 14v-6q0 -53 -4 -100z" />
<glyph unicode="R" horiz-adv-x="655" d="M113 102v88q2 188 32 310q0 123 -8 221q-2 20 12.5 37.5t36 19.5t39 -12t19.5 -37q0 -10 2 -20q106 131 303 151h6q19 0 34 -12q17 -14 19 -36v-5q0 -17 -12 -33q-14 -18 -35 -20q-201 -20 -278 -185q-18 -37 -31 -84q0 -49 -8 -260l-6 -157l-2 -37v-8l6 30v-6 q0 -41 -25 -72q-13 -15 -28 -15q-20 0 -44 26q-12 10 -18 26q2 7 2 15v4q-2 -8 -4 -15q-4 12 -6 29q-4 25 -6 57zM123 -10l4 22q0 2 -2 4q-3 -15 -3 -22q0 -3 1 -4z" />
<glyph unicode="S" horiz-adv-x="765" d="M86 920q8 18 18 32q29 43 76 70q61 34 135 34h12q81 -3 158 -42q33 -14 64 -39q34 -22 61 -53q57 -55 84 -72q18 -12 24 -34q2 -7 1 -12q-1 -14 -9 -28q-12 -18 -33.5 -23t-40 7t-34.5 26q-37 0 -51 31q-6 16 -19 33h-2q-25 25 -43 39q-55 35 -129 45q-23 3 -43 3 q-83 0 -122 -46q-19 -31 -19 -74q0 -28 8 -61q10 -41 66 -129q98 -162 104 -174q76 -139 76 -242q0 -74 -39 -129q-33 -74 -125 -119q-12 -6 -24 -6q-8 0 -16 3q-20 7 -31 26q-2 4 -5 6q-10 18 -7 38.5t20 35.5l39 24q20 14 32.5 23.5t22.5 21.5h2q6 20 4 47q-2 70 -78 209 l-30 60l-37 67l-33 62q-18 37 -29 67q-34 86 -34 158q0 63 26 115z" />
<glyph unicode="T" horiz-adv-x="700" d="M45 886.5q0 22.5 15.5 38t37.5 15.5q61 0 140 4q-8 180 -29 402q-2 23 12.5 40t36.5 19h5q18 -1 33 -13q17 -14 19 -34q18 -188 29 -406q180 14 254 17q23 0 39 -15.5t16 -37t-15 -38t-36 -16.5q-72 -2 -250 -16h-4q4 -166 4 -832q0 -23 -15 -38t-38 -15t-38 15.5 t-15 37.5q0 662 -4 824q-82 -4 -144 -4q-23 0 -38 15t-15 37.5z" />
<glyph unicode="U" horiz-adv-x="976" d="M78 324q-4 37 -4 84q0 59 6 133q10 156 10 174q0 8 2 14q0 23 14 38t36 17h5q17 0 33 -13q16 -15 19 -38v-17q0 -43 -6 -167q-3 -64 -3 -113t3 -84q14 -170 120 -213q10 -2 23 -2q117 0 220 74t161 188q33 66 71 199v4q0 2 1.5 9t3.5 18q2 20 10 33q4 8 12 14v6q2 8 6 14 q6 16 21 25q20 12 45 6q16 -6 26 -18q14 -20 17 -62q1 -12 1 -29t-1 -38v-39v-2q0 -63 -12 -177q-10 -90 -23 -184q-6 -63 -8 -82q-2 -12 -6 -22q-2 -8 -2 -13q-3 -23 -21 -36q-14 -11 -32 -11q-4 0 -8 1q-22 3 -35 20.5t-11 38.5q2 10 4 26.5t6 44t6 45.5l5 33 q-102 -152 -252 -196q-37 -11 -103 -13h-24q-50 0 -80 9q-27 4 -49 12q-92 16 -146 90q-49 72 -61 199z" />
<glyph unicode="V" horiz-adv-x="858" d="M55 831q2 33 33 46q10 4 20 4q11 -1 21 -5q21 -8 29 -28l24 -60q104 -168 209 -440q4 -10 10 -22l7 -17q86 221 262 469q10 14 26 21l17 24q12 18 33.5 23.5t39.5 -6.5q19 -12 24 -34q1 -6 1 -13q0 -14 -8 -27q-170 -262 -254 -512q-2 -4 -31 -107l-18 -65q-4 -14 -8 -23 l-5 -10q0 -2 -2 -4l-4 -8q-8 -14 -28 -21q-8 -2 -15 -2q-6 0 -12 2q-12 4 -19.5 8.5t-7.5 6.5q-4 4 -8 10t-6 12q-4 10 -12 27l-8 29q-2 0 -3 2q-6 4 -8 10q-4 4 -6 10t-4 16l-14 48q-23 70 -29 92q-35 84 -115 248q-68 135 -98 202l-29 43q-8 14 -8 29q0 11 4 22z" />
<glyph unicode="W" horiz-adv-x="1116" d="M-6 1084q0 17 12 33q14 18 37 20h7q29 0 44 -29q23 -14 25 -41q4 -53 12 -215l10 -260q10 -158 25 -258q14 -117 35 -158q18 -39 52 -61.5t66 -22.5q35 0 56 14q16 33 24 87q6 33 13 98v14q0 18 4 31q2 12 8 20q14 29 45 31h4q42 0 62 -41q6 -16 10 -43q2 -10 6 -37 q8 -37 18 -69q37 -111 84 -140q24 -9 46 -9q40 0 73 30l6 4q53 57 96 186q33 100 60 242q16 117 16 199q0 23 15.5 38t38.5 15q33 0 47 -31q19 -15 19 -37q0 -5 -1 -10q-23 -145 -31 -192q-23 -152 -61 -267q-51 -147 -125 -217q-68 -71 -150 -71q-33 0 -69 12q-12 4 -25 10 q-6 4 -14 6q-70 33 -107 111l-8 -13q-10 -14 -22 -26q-39 -66 -107 -80q-20 -4 -40 -4q-61 0 -120 41q-66 47 -96 119q-61 143 -80 481q-2 62 -8 238z" />
<glyph unicode="X" horiz-adv-x="817" d="M119 496q-4 10 -4 20t4 20q9 20 29 29q10 4 20 4t20 -4l21 -8q6 -2 10 -4q102 -35 211 -139q63 59 152 133q18 14 39.5 12t35.5 -18q2 -4 7 -9l24 17q18 12 40 7q22 -6 34 -24q8 -13 8 -27q0 -7 -1 -13q-5 -22 -24 -33q-116 -74 -210 -152q59 -66 124 -157q12 -14 11 -35 l10 -15q12 -18 7 -39.5t-23.5 -34t-40 -7t-33.5 23.5q-80 121 -141 193q-119 -111 -173 -211q-12 -25 -38 -29q-17 -19 -38 -19q-13 0 -28 7q-18 10 -25.5 30.5t3.5 40.5q72 143 202 283q-98 86 -205 129q-20 9 -28 29z" />
<glyph unicode="Y" horiz-adv-x="931" d="M92 950v2v5q0 17 12 33q13 18 34 21q5 1 8 1q17 0 32 -11q17 -13 21 -36q2 -16 10 -181q6 -119 20 -186q18 -88 58 -131q43 -47 123 -47q74 0 147.5 48t130.5 126q27 35 41 59q6 25 16 62l17 61q4 14 6 20.5t2 10.5q4 6 6 10q8 12 19 19q18 8 36 6q18 -4 31 -21 q20 -25 25 -73q1 -8 1 -18q0 -27 -5 -64q-8 -80 -35 -207q-51 -238 -92 -344q-47 -121 -127 -246q-16 -25 -43 -25h-8h-6q-15 0 -29 9q-18 12 -23.5 33.5t6.5 39.5q76 115 119 226q18 53 68 270q-106 -109 -246 -119q-15 -1 -30 -1q-115 0 -192 56q-87 64 -126 174t-39 251 q0 79 12 167z" />
<glyph unicode="Z" horiz-adv-x="931" d="M92 950v2v5q0 17 12 33q14 18 34 21q4 1 8 1q18 0 32 -11q18 -13 21 -36q2 -16 10 -181q6 -119 20 -186q18 -88 58 -131q43 -47 123 -47q74 0 147.5 48t130.5 126q27 35 41 59q6 25 16 62l17 61q4 14 6 20.5t2 10.5q4 6 6 10q8 12 19 19q18 8 36 6q18 -4 31 -21 q20 -25 25 -73q0 -8 1 -18q0 -28 -5 -64q-8 -80 -35 -207q-51 -238 -92 -344q-47 -121 -127 -246q-16 -25 -43 -25h-8h-6q-15 0 -29 9q-18 12 -23.5 33.5t6.5 39.5q76 115 119 226q18 53 68 270q-106 -109 -246 -119q-15 -1 -30 -1q-115 0 -192 56q-87 64 -126 174t-39 251 q0 79 12 167z" />
<glyph unicode="[" horiz-adv-x="544" d="M182 1315q6 147 43 211q25 45 105 82l53 20q35 14 41 17q20 8 40.5 -0.5t29 -29t0 -41t-28.5 -28.5q-6 -2 -43 -16q-29 -12 -49 -21q-47 -20 -58 -36q-23 -41 -26 -162q-4 -109 8 -277q6 -92 16 -186q10 -96 23 -193q12 -92 14 -114q4 -37 6 -109q2 -84 4 -113 q8 -125 48 -167q14 -16 12 -39t-18.5 -37.5t-39 -12t-36.5 18.5q-59 70 -72 229q-2 20 -4 119q-2 68 -6 98q-2 18 -14.5 116.5t-22.5 195.5q-10 94 -17 188q-12 174 -8 287z" />
<glyph unicode="\" horiz-adv-x="888" d="M112 1290q7 21 26.5 31t40 2.5t30.5 -25.5q29 -57 96 -155q72 -109 103 -166q29 -51 204 -410q121 -246 219 -389q14 -18 10.5 -39.5t-22 -35t-40 -9.5t-34.5 23q-104 152 -229 403q-184 373 -203 406q-25 47 -98 157q-70 104 -100 166q-10 20 -3 41z" />
<glyph unicode="]" horiz-adv-x="501" d="M55 1570.5q0 22.5 16.5 37t39.5 14.5q115 -4 131 -6q104 -18 139 -96q18 -43 14 -107q0 -6 -2 -45q-2 -23 -2 -37q4 -156 15 -442l14 -412q0 -12 6 -74l14 -133l13 -129q2 -29 2 -45q2 -12 0 -18q0 -16 -6 -31q-16 -27 -54 -43q-8 -4 -15 -6t-11 -4q-18 -12 -40 -6 t-33 24.5t-5 40t24 31.5q10 6 33 16q0 12 -2 33q-2 43 -12 125l-12 133q-8 68 -9 82l-14 412q-10 289 -14 442q0 20 2 49q2 39 2 43q2 39 -6 60q-10 25 -58 30q-12 2 -119 7q-23 0 -37 16t-14 38.5zM350 82v4v-4z" />
<glyph unicode="^" horiz-adv-x="933" d="M346 856q0 178 105 610v4v7v18q6 53 49 70q37 14 78 -15q23 -16 49 -45q41 -49 96 -133q102 -162 129 -227q4 -12 18 -74l15 -72q6 -20 -6.5 -38.5t-34 -23.5t-40 7t-22.5 35l-16 70q-10 53 -12 55q-20 57 -121 211q-49 76 -82 115q-98 -408 -98 -574q0 -23 -15.5 -38 t-38 -15t-38 15t-15.5 38z" />
<glyph unicode="_" horiz-adv-x="1533" d="M359.5 28.5q-7.5 20.5 3 40t30.5 27.5q57 18 116.5 31.5t137.5 19.5l115 13q35 2 134 7t116 5q61 4 205 23q137 20 215 22q23 0 39 -14.5t16 -37t-14.5 -38.5t-36.5 -16q-72 -2 -205 -21q-147 -20 -215 -24q-16 0 -115.5 -5.5t-132.5 -7.5l-109 -12q-74 -6 -127 -17.5 t-106 -29.5q-20 -6 -39.5 4t-27 30.5z" />
<glyph unicode="`" horiz-adv-x="483" d="M81 1638.5q1 22.5 16.5 37t38 13t36.5 -17.5q41 -43 80 -92l100 -131l74 -100q12 -16 9 -38t-20.5 -35t-39 -10t-35.5 19l-74 100l-94 123q-37 49 -78 95q-14 14 -13 36.5z" />
<glyph unicode="a" horiz-adv-x="880" d="M4 195q-23 60 -23 122q0 80 39 162q70 147 205 246q83 59 175 88q59 18 120 18q35 1 70 -5q98 -16 168 -95q20 6 39 -4q12 -8 18 -20q4 -6 6 -15q2 -4 4 -12q2 -12 2 -29v-23q0 -35 -4 -73l-2 -16q0 -20 -1 -120v-84.5v-54.5q1 -38 4 -111t10 -130v-6q0 -19 -12 -34 q-14 -17 -36 -19q-4 0 -6 -1q-18 -1 -34 11q-18 14 -19 37q-6 68 -10 137q-55 -74 -143.5 -121t-184.5 -57q-27 -3 -53 -3q-96 0 -180 40q-108 51 -152 172zM88 307q2 -39 14 -76q18 -45 52 -77q-6 20 4 36l4 11q-10 0 -19 6q-20 8 -27 28.5t1 38.5q-20 10 -29 33zM90 346 q27 62 62 154q-51 -78 -62 -154zM209 115q37 -18 82 -23q-24 17 -24 41q0 9 3 19q18 55 47 114q-41 -72 -65 -121q-12 -29 -43 -30zM289 563l22 31q18 21 40 21q13 0 28 -7q23 51 39 99q-45 -14 -88 -41zM348 88l29 4q12 0 24 2q-6 20 7 39l63 107l68 112q25 43 54.5 103.5 t45.5 111.5q8 20 27.5 30.5t40.5 4.5l8 -4v20v13q-14 6 -25 18q-59 72 -158 76q0 -8 -2 -14q-18 -66 -51 -138q25 49 43 93q8 20 28.5 28t41 0t29 -28.5t0.5 -40.5q-31 -76 -134 -258q-84 -154 -114 -248q-6 -20 -25 -31zM549 152q80 51 110 124q21 49 35 123 q-41 -88 -137 -237q-4 -6 -8 -10z" />
<glyph unicode="b" horiz-adv-x="942" d="M76 1100q-2 8 -2 15q0 12 6 24l-2 10q-2 20 10 38.5t34 21.5q4 1 8 1q18 0 32 -10q18 -12 22 -35q29 -162 34 -379q86 111 237 138q41 7 77 7q80 0 142 -34q86 -45 141 -127t72 -178q11 -64 11 -123q0 -222 -159 -365q-177 -159 -483 -159h-4q-29 0 -45 24q-20 0 -35 13 q-8 0 -18 2q-23 6 -35 26q-4 4 -6 13q-19 47 -19 127v8q2 18 4 57t2 57q0 145 15 242v127q-2 18 -2 37q-2 37 -4.5 107.5t-3.5 112.5t-9 99.5t-20 102.5zM240 399l2 -18q29 55 111.5 204.5t123.5 233.5q-2 0 -6 -2q-20 -2 -39 -8q2 -12 -2 -25q-47 -145 -190 -385zM256 184 q4 -72 4 -133q90 0 170 19q-6 23 6 43l125 186q88 129 131 199q12 18 34 23t40 -7q23 -14 25 -39q0 47 -11 100q-12 72 -53 133.5t-102 94.5q-16 8 -35 12q0 -10 -6 -22q-49 -100 -154 -287q-106 -195 -160 -301q-4 -12 -14 -21zM313 134q-2 8 -2 15q0 13 6 25l287 477 q10 19 32 25q7 2 13 2q13 0 27 -8q20 -12 25 -33t-7 -39q-256 -428 -282 -477q-12 -19 -33 -25q-8 -2 -15 -2q-14 0 -26 8q-20 12 -25 32zM776 432q6 -2 12 -6q2 18 3 37q-2 -12 -9 -23z" />
<glyph unicode="c" horiz-adv-x="845" d="M117 393q31 137 141 264q113 129 244 174q61 22 115 22q89 0 161 -58q18 -12 20 -35q0 -3 1 -6q0 -19 -13 -33q-15 -20 -37 -20q-10 0 -22 4v-7q-2 -20 -19.5 -34.5t-39.5 -12.5q-14 2 -30 2q-55 -1 -120 -23q-84 -28 -151 -83q-73 -57 -101 -125q-17 -40 -16 -80 q0 -28 8 -55q39 -125 244 -150q45 -5 96 -6q26 0 53 2q23 0 49 2q12 2 17 2h6h8q6 -2 12 -2q20 -8 29 -26q7 -14 7 -27q0 -20 -17 -37q-6 -6 -14 -10l-13 -4q-6 -2 -16 -4q-18 -2 -45 -4q-52 -6 -106 -6q-20 0 -40 1q-236 8 -346 113q-75 72 -75 179q0 39 10 83z" />
<glyph unicode="d" horiz-adv-x="1177" d="M199 197q-36 79 -36 151q1 72 37 138q72 130 218 176q55 19 115 19q26 1 53 -3q90 -12 162 -62l-17 80q-54 275 -54 532q0 94 7 185q10 125 41 240q23 78 51 129q41 72 96 92q29 11 55 11q59 0 105 -58q43 -53 68 -158q29 -129 30 -293v-16q0 -200 -47 -470 q-49 -280 -127 -552q66 -135 152 -199q16 -14 19 -35.5t-9 -40.5q-12 -14 -31 -18q-4 -14 -14 -25q-16 -14 -38.5 -13t-37.5 16q-39 43 -75 112q-29 -129 -115 -162q-57 -22 -133 -22q-73 0 -164 20q-227 47 -311 226zM276 387l60 107q-47 -47 -60 -107zM297 238 q41 -82 125 -125q0 6 4 12q27 55 88 164.5t90 167.5q10 18 30.5 25t40 -3t27 -30.5t-3.5 -40.5q-27 -55 -88 -165t-90 -165l10 -4q27 -4 50 -8q-8 18 -2 38q16 55 59 146q43 92 57 133q8 23 27.5 32t40.5 3q23 -8 31 -27q-57 141 -185 174q18 -16 18 -35q0 -14 -10 -30 q-39 -66 -129 -250q-8 -20 -29.5 -27.5t-41 1.5t-26.5 30.5t3 40.5q90 188 133 258q8 14 21 20q-25 2 -49 -2q-2 -10 -6 -20q-12 -20 -72 -127t-94 -162q-10 -18 -29 -24zM752 68h6l4 12l10 29l-16 -37zM780 309q18 2 33 -6q10 -6 16 -14l5 8v18q-18 10 -25 31q-6 19 -12 35 q4 -14 0 -31zM801 1108q12 -188 49 -391q12 -66 27 -127q4 18 18 96t18 102l17 95q10 70 14 102.5t13.5 93t13.5 101.5l6 94q4 53 6 102q4 100 4 163q0 42 -2 69q-6 78 -20 116q-7 17 -11 23q-10 -8 -24 -27q-27 -37 -58 -106q-53 -127 -65 -209q-11 -65 -11 -159 q0 -63 5 -138z" />
<glyph unicode="e" horiz-adv-x="872" d="M-46 436q-2 24 -2 47q0 62 16 123q24 84 86.5 164t158.5 139q73 43 153 69q59 19 127 19q25 -1 51 -3q98 -10 169 -68q37 -33 64.5 -97.5t41.5 -134.5q7 -46 7 -84q0 -26 -3 -49q-6 -39 -22 -67q6 -10 6 -25q0 -23 -15.5 -38t-37.5 -15q-70 0 -185 16q-129 18 -174 21 t-104 3q-29 0 -62 -1l-22 -19q-14 -14 -37 -13t-37 17q-6 7 -10 13h-64q6 -70 39 -131q43 -80 122 -132q78 -54 194 -70q30 -4 61 -3q91 0 199 35q20 6 39.5 -4.5t27 -31t-3 -40t-30.5 -27.5q-123 -39 -232 -39q-37 0 -73 4q-140 18 -241.5 86t-156.5 172q-41 78 -50 164z M72 580l75 122l29 46q-78 -74 -104 -168zM205 590q4 2 8 2q106 115 213 291q-41 -10 -84 -27q13 -16 13 -32q0 -18 -17 -36q-41 -47 -98 -141zM352 590q12 0 25 -2q-6 23 8 43l2 4zM479 582h2l27 30l20 29q10 12 25 37l20 33q4 8 21 39l12 24q-37 -63 -127 -192zM606 567 l19 -2q-7 7 -9 17zM621 797q14 23 41 24q-8 14 -17 21zM694 555l17 -2q4 8 8 25v8l-6 -13q-8 -12 -19 -18z" />
<glyph unicode="f" horiz-adv-x="882" d="M-72 478v6q0 18 12 34q15 17 35 19h5q10 37 49 38q74 4 84 5q0 76 2 149q4 150 41 356q29 176 77 324l9 25l6 18q49 147 90 221q74 133 176 182q57 32 108 32q21 0 40 -5q10 -4 22 -8q29 -12 53 -35q53 -47 78 -141q23 -87 23 -175q0 -62 -11 -124q-16 -82 -45 -156 q-23 -61 -67 -160q-16 -31 -51 -30q-16 -12 -32 -12l-34 14q-16 14 -18 36.5t12 38.5q55 63 90 150q33 88 39 160q3 27 3 57q0 40 -5 86q-8 80 -33 135q-18 43 -43 58q-20 6 -47 -2q-16 -4 -33 -13q-16 -10 -35 -24q-125 -98 -221 -461q-27 -104 -47 -211q-33 -211 -37 -475 q12 2 24.5 5t22.5 -1q88 18 154 27q23 2 40 -12.5t19 -36t-12 -39t-35 -19.5q-74 -8 -213 -39q0 -43 2 -98q4 -139 23 -391q2 -23 -13.5 -39.5t-36.5 -18.5h-5q-19 0 -33 14q-17 15 -19 35v3q-6 10 -6 20q-14 227 -16 385q-2 35 -2 66q-72 -14 -129 -21q-23 -2 -40.5 12.5 t-19.5 35.5z" />
<glyph unicode="g" horiz-adv-x="972" d="M18 713q43 141 187 276q137 127 303 193q102 40 189 40q58 0 110 -18q16 -6 34.5 -17t37 -24.5t22.5 -15.5q18 -10 23 -31q2 -7 2 -14q0 -15 -8 -29q-10 -16 -31 -22q-4 -35 -13 -88l-45 -269q-10 -53 -20 -133l-16 -125q-6 -45 -19 -100q-14 -53 -31 -96 q-37 -94 -112 -174q-78 -82 -219 -177q-13 -8 -27 -8q-7 0 -13 1q-22 5 -34 23.5t-7 40t23 34.5q135 90 195 155q66 68 96 144q29 72 53 256q-31 -45 -63 -80q-131 -140 -303 -140q-37 0 -76 7q-119 20 -182 92l-6 8q-4 2 -9 2q-20 6 -30 25.5t-4 39.5q-24 55 -24 116 q0 52 17 108zM141 502q4 -8 11 -15q-2 16 6 31q27 47 110 248q28 66 51 111q-92 -119 -178 -375zM221 440q25 -8 51 -12q29 -6 54 -6q-6 0 -13 4q-20 6 -29.5 26.5t-0.5 41.5q104 278 104 280l-20 -49q-86 -209 -115 -260q-10 -18 -31 -25zM315 944q21 -20 13 -49 q33 61 69 111q-43 -29 -82 -62zM338 422q123 2 221 106l2 4q-2 2 -4 3q-23 9 -31 32q-25 -20 -55 -8q-33 12 -33 49l-57 -151q-10 -31 -43 -35zM455 1040q16 -2 28 -12q11 -8 17 -18q20 37 43 71q-43 -16 -88 -41zM625 1106q16 -12 20 -35q20 8 41 0t29 -31l6 13 q10 33 47 34q-2 8 0 17q-31 10 -69 10q-34 0 -74 -8z" />
<glyph unicode="h" horiz-adv-x="673" d="M-29 1171q-4 10 -4 20q1 11 5 21q8 21 28 29q10 4 20 4t20 -4q20 -8 30 -29l2 -4q33 -8 39 -43q16 -117 22 -288q0 -29 2 -113t4 -129q72 72 160 90q28 6 54 6q92 0 155 -80q39 -47 61 -125q31 -68 45 -155q15 -89 15 -195q0 -98 -13 -211q-2 -23 -19 -36 q-15 -11 -34 -11h-6q-20 2 -34.5 18.5t-12.5 36.5q-31 14 -31 45q0 8 2 17q13 63 17 165q1 21 0 43q0 83 -13 177q-6 39 -16 69q-43 94 -125 113q-29 4 -55 -20q-33 -29 -62 -90q-51 -111 -63 -226q-2 -16 -2 -39v-22v-21v-41v-14v-2v-4v-2v-2v-2q-2 -8 -6 -17 q-8 -16 -27 -24q6 -18 2 -35q-4 -20 -18 -35q-18 -14 -41 -14q-14 0 -25.5 6t-15.5 14l-4 6q-4 4 -7 11q-2 4 -2 10q-2 6 -2 14q-4 18 -4 45q-4 43 -4 87q0 29 2 59q2 14 2 28v11q0 25 4 194q1 80 1 148.5t-1 126.5q-6 324 -45 419z" />
<glyph unicode="i" horiz-adv-x="1040" d="M68 1369q6 73 28 142q18 49 80 131q61 78 129 138q88 76 162 78h7q101 0 140 -121q15 -45 15 -100q0 -90 -41 -205l-8 -21l84 55q94 59 159 80q40 13 71 13q55 0 83 -41q17 -26 17 -57q0 -14 -3 -29q-6 -33 -30 -74q-35 -63 -115 -152q-53 -61 -133 -141l-88 -88 q-43 -45 -99 -119l-96 -131q-14 -16 -35.5 -19t-40.5 9q-18 14 -20 39q-4 -4 -8 -6q-20 -8 -41 -1t-31 27l-51 105q-37 76 -55.5 117.5t-44 114.5t-33.5 128q-4 32 -4 69q0 28 2 59zM178 1403q55 123 117 217q-80 -92 -96 -145q-15 -35 -21 -72zM193 1184q8 -31 22 -66 q86 269 119 359q-59 -109 -119 -267q-6 -18 -22 -26zM287 276v33v25q6 55 37 104q4 15 2 27q-6 18 -23 47q-12 18 -7 39.5t24.5 33t41 6.5t31.5 -26q12 -16 19 -33q14 -10 18 -28q0 -10 2 -19q5 -17 5 -34q0 -25 -11 -48l-4 -8l-10 -24q-14 -39 -17 -58q0 -4 2 -10 q14 -37 19 -53q4 -35 5 -95q0 -20 -1 -42l-2 -80q-25 0 -47 12q-27 2 -40.5 14.5t-15.5 22.5t-2 33v8q-20 59 -26 153zM330 868l22 -47q2 -6 4 -14l17 22q-4 2 -6 2q-23 14 -27 41q-6 -2 -10 -4zM389 1571q18 4 35 -2q20 -6 29.5 -26.5t1.5 -41.5l-47 -133q16 2 32 -6 q4 -2 6 -4q6 14 20.5 52t20.5 56q35 99 35 171q0 38 -10 67q-2 8 -4 14q-4 -10 -14 -18q-55 -55 -105 -129zM451 1081q22 14 47 4q0 16 6 29l98 180l-84 -65q-8 -27 -10 -51q-4 -31 -31 -43z" />
<glyph unicode="j" horiz-adv-x="598" d="M-2 64q8 20 28.5 28t41.5 0q56 -26 110 -26q11 0 22 2q64 6 99 53q31 43 41 194q3 45 3 99q0 26 -1 55q-2 16 -25 154q-18 104 -20 159q-4 74 -4 154t2 191.5t2 154.5q-18 -2 -35 -4h-14q-39 -10 -55 -12q-20 -6 -39 6t-24 33.5t7.5 40t34.5 22.5q16 4 71.5 20.5 t86.5 24.5q57 14 96 19q20 3 37 3q31 0 53 -10q8 -4 12 -8q18 -12 23 -33q1 -7 1 -13q0 -22 -17 -38q-8 -6 -18.5 -10t-29.5 -6q-8 -2 -16 -3t-12 -1h-6q-29 -8 -50 -13v-8v-2q0 -59 15 -258q18 -250 24 -366q6 -109 7 -191l2 -8q12 -87 12 -157q0 -114 -31 -185 q-84 -186 -323 -203h-5q-20 0 -34 14q-17 15 -19 35v13q-12 4 -24 10q-20 8 -29 28q-4 11 -4 22q0 10 4 20z" />
<glyph unicode="k" horiz-adv-x="888" d="M160 -2q0 150 16 422q0 10 2 18v17q-6 16 -2 32q2 8 6 17q14 172 14 375v15q0 212 -32 386q-2 20 10 38.5t34 21.5q4 1 8 1q18 0 32 -10q18 -12 22 -35q30 -180 31 -440q0 -127 -8 -274q39 33 160 163q133 143 227 201q4 2 16 12l27 21q23 16 43 18q8 1 14 1q38 0 58 -37 q6 -15 6 -28q0 -24 -17 -46q-12 -14 -34 -29l-21 -10q-8 -4 -11 -5t-7 -3l-367 -342q152 -37 283 -115q18 -10 24 -31.5t-5 -40t-32.5 -24.5t-40.5 6q-145 84 -317 115q-2 2 -10 0l-6 -5q-16 -268 -17 -405q0 -23 -15 -38t-38 -15t-38 15t-15 38z" />
<glyph unicode="l" horiz-adv-x="520" d="M-87 48q3 22 21 34q84 61 154 182q-50 178 -50 382q0 145 25 302q6 74 17 144q18 100 76 221q6 16 12 28l12 21q39 68 84 100q42 31 83 31q36 0 71 -23q43 -27 53 -98q3 -22 3 -50t-3 -60q-4 -66 -25 -183l-20 -102v-6q-8 -139 -58.5 -322.5t-127.5 -347.5 q39 -154 98 -311q6 -8 8 -17l6 -18q8 -23 0 -42t-30 -27q-11 -4 -21 -4q-9 0 -19 4q-20 8 -28 28l-10 27q-61 84 -105 182q-47 -70 -96 -117q-22 -22 -53 -14q-16 -8 -36 -4t-32 20q-10 13 -10 31q0 5 1 9zM170 936q-3 -48 -3 -97q0 -160 30 -335l10 33q61 180 112 452 q4 64 4 116.5t-4 94.5q-6 72 -22 105q-8 14 -12 16q-6 -4 -15 -16l-6 -13q-6 -10 -12 -22q-16 -35 -31 -88q-20 -72 -45 -215q-4 -14 -6 -31zM283 1321h2h-2z" />
<glyph unicode="m" horiz-adv-x="1159" d="M4 809v14v2v6q0 19 10 35q12 18 35 21q27 4 45 -15q127 54 224 53q51 0 94 -14q31 -12 57 -28q57 -20 98 -60q25 -23 45 -49q35 59 76 100q74 71 157 71q29 0 60 -9q76 -23 127 -111q39 -68 60 -170q25 -114 24 -213q0 -58 -8 -110q-14 -88 -57 -189q-4 -16 -50 -127 q-12 -33 -46 -33q-4 0 -9 1q-16 -2 -33 6q-18 12 -24 33.5t4 39.5q35 57 59 117q29 80 33 142q1 11 1 26q0 40 -8 109q-11 94 -36 178q-27 98 -63 141q-20 24 -41 24q-8 0 -15 -3q-49 -20 -82 -95q-33 -68 -47 -174q-8 -51 -12 -108v-29v-72v-24q-2 -8 -2 -12t-2 -11 q-2 -8 -6 -14q-8 -8 -19 -14l2 -6q0 -4 2 -9v-4q2 -2 2 -4v-8q0 -12 -6 -25q-8 -18 -28 -24q-18 -8 -37 0q-12 4 -21 12q-4 4 -6 8q0 2 -2 6l-2 3q-2 2 -4 6q-43 66 -43 190v21q2 47 10 96q-4 55 -12 98q-27 131 -88 182q-35 9 -74 9q-19 0 -39 -2q-121 -14 -180 -86v-2 q4 -61 8 -138l17 -153q22 -228 22 -396v-14q0 -23 -15.5 -38t-38 -15t-37.5 15.5t-15 37.5v33q-16 14 -19 37q-6 70 -16 381q-2 61 -4 104q-18 172 -25 250z" />
<glyph unicode="n" horiz-adv-x="1030" d="M125 729v6q0 19 10 34q12 17 35 22q33 4 51 -23q27 -14 29 -43q51 68 127 124t158 87q77 29 145 29q42 0 80 -11q121 -35 178 -166q25 -55 35 -124.5t12 -119.5v-15q0 -47 -10 -120q-12 -85 -18.5 -117t-29 -127t-26.5 -106q-4 -20 -22.5 -32.5t-40.5 -6.5q-23 4 -35 27 q-28 15 -28 43q0 7 1 14q2 16 37 164q27 109 33 164q6 47 6 89q0 121 -49 206q-43 78 -117 92q-16 3 -33 3q-55 0 -119 -30q-84 -38 -152.5 -112t-90.5 -145q-10 -27 -37 -35q0 -49 -2 -111q-10 -307 -10 -330q0 -14 -6 -24q-2 -20 -17.5 -34.5t-36.5 -14.5q-23 0 -38 15 t-15 38q0 78 6 222.5t6 257t-16 210.5z" />
<glyph unicode="o" horiz-adv-x="1042" d="M-18 793q8 147 92 208q48 37 110 43q15 1 30 1q45 0 85 -13q53 -18 102 -51q113 -73 156 -182q127 90 258 90q104 -2 152 -72q29 -43 29 -104q0 -46 -17 -103q-43 -147 -195 -319q-33 -39 -125 -135l-114 -127q-14 -19 -36 -21h-7q-18 0 -31 12q-10 6 -14 17 q-16 -10 -30 -10q-19 0 -36 18q-72 70 -119 120t-109.5 132t-99 153.5t-61.5 163.5q-21 76 -21 150q0 14 1 29zM88 788q0 -10 -1 -20q0 -41 7 -82q43 113 109 252q-39 -2 -68 -23q-43 -31 -47 -127zM147 524q13 -24 27 -49q23 57 84 191q63 139 94 215q0 2 2 4l-12 8 q-16 12 -35 20q-102 -225 -160 -389zM236 379l34 -45q57 147 170 397q8 14 21 23q-10 25 -27 49q-27 -70 -78 -182q-84 -184 -96 -215q-6 -18 -24 -27zM342 248l12 -12q33 86 97 219l96 198q-10 -4 -23 -4h-4q-104 -231 -162 -379q-4 -14 -16 -22zM428 158l37 -39 q6 -4 8 -10q35 41 90 98q-23 -10 -45 2q-20 8 -27.5 28.5t3.5 41.5q33 70 127 237q84 147 118 232q8 20 29 28q-82 -16 -152 -65q6 -2 11 -4q20 -10 28 -31t0 -39q-18 -41 -108 -227q-66 -137 -96 -226q-6 -16 -23 -26zM590 238l45 45q-4 2 -6 4q-7 2 -11 6zM764 432 q84 111 113 207q13 45 13 75q0 28 -11 44q-15 24 -60 24h-4q-10 0 -22 -2q8 0 16 -4q20 -8 28.5 -28.5t0.5 -40.5l-35 -76l12 -4q18 -12 24.5 -34t-3.5 -40z" />
<glyph unicode="p" horiz-adv-x="935" d="M84 732q-4 9 -4 18q0 12 6 22q20 47 51 98q2 62 2 121t-2 115q0 23 14.5 39t36.5 16h7q47 51 153 88l17 4q16 22 38 22q11 0 23 -5q45 8 87 8q114 0 204 -61q152 -102 170 -328q3 -31 3 -59q0 -155 -73 -255q-68 -92 -221 -174q-152 -80 -383 -112q-12 -199 -16 -326 q0 -23 -16.5 -37t-39 -14t-37 16.5t-14.5 38.5q2 63 33 572q6 115 8 157q-10 0 -20 6q-20 8 -27 30zM227 481q23 45 47 82q2 8 7 15q55 82 161 227q106 147 156 223q12 18 33.5 23.5t40 -7t23.5 -34t-7 -39.5q-51 -80 -162 -228l-90 -125q2 -23 -14 -38q-63 -74 -111 -166 q72 16 131 37q-12 2 -24 10q-16 14 -19.5 35.5t9.5 40.5l77 94q51 63 79 100t61.5 91.5t54.5 105.5q8 20 27.5 28.5t42.5 -0.5q14 -6 22 -18q-27 131 -117 190q-23 16 -51 27q6 -25 -10 -45q-55 -72 -145 -231q-106 -188 -146 -248q-12 -18 -31.5 -23.5t-38.5 4.5l-4 -80z M240 729q27 43 114.5 200.5t153.5 241.5q-35 0 -70 -8q-39 -78 -123 -209l-71 -114zM246 1042l30 50q-10 -10 -18 -25q-6 -8 -12 -14v-11zM659 565q45 35 72 72q23 31 35 68zM748 821q18 0 30 -10l4 -4q1 11 1 23q0 24 -3 51v10q-2 -2 -2 -4q-12 -33 -30 -66z" />
<glyph unicode="q" horiz-adv-x="1095" d="M6 688q-10 48 -10 97q0 61 16 121q27 108 90 208q53 84 126 151.5t159 110.5t185.5 43t189.5 -53q111 -51 151 -172q22 -65 22 -137q0 -116 -56 -252q-47 -111 -127 -206t-181 -146l50 -148l32 -96l2 -6q6 4 31 19.5t40 22.5t37.5 19t45 19.5t45.5 11.5q22 4 43 4 q75 0 121 -53q34 -39 34 -84t-32 -96q-27 -43 -100.5 -112t-155.5 -124q-102 -66 -182 -84q-34 -9 -64 -9q-71 0 -117 48q-36 35 -36 82q0 25 10 53q16 47 69 109q14 16 82 90l33 37l-6 20l-33 96l-49 142q-45 -11 -91 -11l-179 43q-37 16 -68 39q-14 6 -22 19 q-84 72 -105 184zM117 682q0 2 18 129q16 113 23 182q-57 -115 -57 -212q0 -52 16 -99zM209 563l12 -8q-8 16 -6 35q12 57 33.5 193.5t43 245t54.5 198.5q-59 -45 -108 -107q28 -14 28 -47q0 -104 -24 -276q-29 -207 -33 -234zM281 528q39 -14 77 -16q-27 18 -22 51 q12 66 86 342q10 41 31 176q16 121 45 191q8 20 28.5 28.5t41 0t28.5 -29t0 -40.5q-23 -57 -39 -166q-23 -145 -33 -188l-22 -82l-23 -84q-10 -33 -20 -78t-17 -86q-4 -20 -18 -33q109 18 205 109q-2 0 -6 2q-18 4 -29.5 19t-11.5 34q-8 -18 -25.5 -27.5t-38 -3.5t-32 24.5 t-5.5 41.5q25 92 162 536q8 27 35 35q-35 8 -78 8q-25 0 -41 19q-61 -2 -123 -31q23 -16 23 -40q0 -10 -4 -21q-33 -90 -56 -193q-23 -104 -44 -247.5t-33 -209.5q-8 -35 -41 -41zM475 -117q-3 -8 -3 -14t3 -10q16 -16 46 -16q13 0 28 3q-2 10 -2 21q8 111 10 129 q-18 -20 -31 -37q-41 -47 -51 -76zM565 166h2h-2zM649 98q28 -15 28 -42q0 -9 -3 -19q-12 -47 -19 -148l25 15q-12 18 -6 41q22 84 28 164l-4 -5q-23 -12 -47 -2zM737 1192q23 16 49 8l13 -8q-20 41 -58 63q10 -18 4 -38zM815 1122q4 -2 8 -2q-2 6 -4 15v-5zM899 84 q23 25 31 39q14 22 14 37q0 10 -6 16q-10 12 -35 14v-6q0 -53 -4 -100z" />
<glyph unicode="r" horiz-adv-x="655" d="M113 102v88q2 188 32 310q0 123 -8 221q-2 20 12.5 37.5t36 19.5t39 -12t19.5 -37q0 -10 2 -20q106 131 303 151h6q19 0 34 -12q17 -14 19 -36v-5q0 -17 -12 -33q-14 -18 -35 -20q-201 -20 -278 -185q-18 -37 -31 -84q0 -49 -8 -260l-6 -157l-2 -37v-8l6 30v-6 q0 -41 -25 -72q-13 -15 -28 -15q-20 0 -44 26q-12 10 -18 26q2 7 2 15v4q-2 -8 -4 -15q-4 12 -6 29q-4 25 -6 57zM123 -10l4 22q0 2 -2 4q-3 -15 -3 -22q0 -3 1 -4z" />
<glyph unicode="s" horiz-adv-x="765" d="M86 920q8 18 18 32q29 43 76 70q61 34 135 34h12q81 -3 158 -42q33 -14 64 -39q34 -22 61 -53q57 -55 84 -72q18 -12 24 -34q2 -7 1 -12q-1 -14 -9 -28q-12 -18 -33.5 -23t-40 7t-34.5 26q-37 0 -51 31q-6 16 -19 33h-2q-25 25 -43 39q-55 35 -129 45q-23 3 -43 3 q-83 0 -122 -46q-19 -31 -19 -74q0 -28 8 -61q10 -41 66 -129q98 -162 104 -174q76 -139 76 -242q0 -74 -39 -129q-33 -74 -125 -119q-12 -6 -24 -6q-8 0 -16 3q-20 7 -31 26q-2 4 -5 6q-10 18 -7 38.5t20 35.5l39 24q20 14 32.5 23.5t22.5 21.5h2q6 20 4 47q-2 70 -78 209 l-30 60l-37 67l-33 62q-18 37 -29 67q-34 86 -34 158q0 63 26 115z" />
<glyph unicode="t" horiz-adv-x="700" d="M45 886.5q0 22.5 15.5 38t37.5 15.5q61 0 140 4q-8 180 -29 402q-2 23 12.5 40t36.5 19h5q18 -1 33 -13q17 -14 19 -34q18 -188 29 -406q180 14 254 17q23 0 39 -15.5t16 -37t-15 -38t-36 -16.5q-72 -2 -250 -16h-4q4 -166 4 -832q0 -23 -15 -38t-38 -15t-38 15.5 t-15 37.5q0 662 -4 824q-82 -4 -144 -4q-23 0 -38 15t-15 37.5z" />
<glyph unicode="u" horiz-adv-x="976" d="M78 324q-4 37 -4 84q0 59 6 133q10 156 10 174q0 8 2 14q0 23 14 38t36 17h5q17 0 33 -13q16 -15 19 -38v-17q0 -43 -6 -167q-3 -64 -3 -113t3 -84q14 -170 120 -213q10 -2 23 -2q117 0 220 74t161 188q33 66 71 199v4q0 2 1.5 9t3.5 18q2 20 10 33q4 8 12 14v6q2 8 6 14 q6 16 21 25q20 12 45 6q16 -6 26 -18q14 -20 17 -62q1 -12 1 -29t-1 -38v-39v-2q0 -63 -12 -177q-10 -90 -23 -184q-6 -63 -8 -82q-2 -12 -6 -22q-2 -8 -2 -13q-3 -23 -21 -36q-14 -11 -32 -11q-4 0 -8 1q-22 3 -35 20.5t-11 38.5q2 10 4 26.5t6 44t6 45.5l5 33 q-102 -152 -252 -196q-37 -11 -103 -13h-24q-50 0 -80 9q-27 4 -49 12q-92 16 -146 90q-49 72 -61 199z" />
<glyph unicode="v" horiz-adv-x="858" d="M55 831q2 33 33 46q10 4 20 4q11 -1 21 -5q21 -8 29 -28l24 -60q104 -168 209 -440q4 -10 10 -22l7 -17q86 221 262 469q10 14 26 21l17 24q12 18 33.5 23.5t39.5 -6.5q19 -12 24 -34q1 -6 1 -13q0 -14 -8 -27q-170 -262 -254 -512q-2 -4 -31 -107l-18 -65q-4 -14 -8 -23 l-5 -10q0 -2 -2 -4l-4 -8q-8 -14 -28 -21q-8 -2 -15 -2q-6 0 -12 2q-12 4 -19.5 8.5t-7.5 6.5q-4 4 -8 10t-6 12q-4 10 -12 27l-8 29q-2 0 -3 2q-6 4 -8 10q-4 4 -6 10t-4 16l-14 48q-23 70 -29 92q-35 84 -115 248q-68 135 -98 202l-29 43q-8 14 -8 29q0 11 4 22z" />
<glyph unicode="w" horiz-adv-x="1116" d="M-6 1084q0 17 12 33q14 18 37 20h7q29 0 44 -29q23 -14 25 -41q4 -53 12 -215l10 -260q10 -158 25 -258q14 -117 35 -158q18 -39 52 -61.5t66 -22.5q35 0 56 14q16 33 24 87q6 33 13 98v14q0 18 4 31q2 12 8 20q14 29 45 31h4q42 0 62 -41q6 -16 10 -43q2 -10 6 -37 q8 -37 18 -69q37 -111 84 -140q24 -9 46 -9q40 0 73 30l6 4q53 57 96 186q33 100 60 242q16 117 16 199q0 23 15.5 38t38.5 15q33 0 47 -31q19 -15 19 -37q0 -5 -1 -10q-23 -145 -31 -192q-23 -152 -61 -267q-51 -147 -125 -217q-68 -71 -150 -71q-33 0 -69 12q-12 4 -25 10 q-6 4 -14 6q-70 33 -107 111l-8 -13q-10 -14 -22 -26q-39 -66 -107 -80q-20 -4 -40 -4q-61 0 -120 41q-66 47 -96 119q-61 143 -80 481q-2 62 -8 238z" />
<glyph unicode="x" horiz-adv-x="817" d="M119 496q-4 10 -4 20t4 20q9 20 29 29q10 4 20 4t20 -4l21 -8q6 -2 10 -4q102 -35 211 -139q63 59 152 133q18 14 39.5 12t35.5 -18q2 -4 7 -9l24 17q18 12 40 7q22 -6 34 -24q8 -13 8 -27q0 -7 -1 -13q-5 -22 -24 -33q-116 -74 -210 -152q59 -66 124 -157q12 -14 11 -35 l10 -15q12 -18 7 -39.5t-23.5 -34t-40 -7t-33.5 23.5q-80 121 -141 193q-119 -111 -173 -211q-12 -25 -38 -29q-17 -19 -38 -19q-13 0 -28 7q-18 10 -25.5 30.5t3.5 40.5q72 143 202 283q-98 86 -205 129q-20 9 -28 29z" />
<glyph unicode="y" horiz-adv-x="931" d="M92 950v2v5q0 17 12 33q13 18 34 21q5 1 8 1q17 0 32 -11q17 -13 21 -36q2 -16 10 -181q6 -119 20 -186q18 -88 58 -131q43 -47 123 -47q74 0 147.5 48t130.5 126q27 35 41 59q6 25 16 62l17 61q4 14 6 20.5t2 10.5q4 6 6 10q8 12 19 19q18 8 36 6q18 -4 31 -21 q20 -25 25 -73q1 -8 1 -18q0 -27 -5 -64q-8 -80 -35 -207q-51 -238 -92 -344q-47 -121 -127 -246q-16 -25 -43 -25h-8h-6q-15 0 -29 9q-18 12 -23.5 33.5t6.5 39.5q76 115 119 226q18 53 68 270q-106 -109 -246 -119q-15 -1 -30 -1q-115 0 -192 56q-87 64 -126 174t-39 251 q0 79 12 167z" />
<glyph unicode="z" horiz-adv-x="794" d="M125 834q0 23 15 38t38 15q45 0 119 12q98 17 129 19q17 1 39 1q18 0 39 -1q33 -2 53 -5q41 -8 59 -28q21 -24 21 -62q0 -11 -2 -24q-4 -35 -23 -86q-25 -74 -94 -201l-51 -94q-70 -166 -92 -234q-18 -55 -25 -86q-2 -4 -2 -6l21 -4q27 -3 69 -3q21 0 45 1h13 q105 7 154 7q20 0 30 -1h14q23 0 38.5 -15.5t15.5 -38t-15.5 -37.5t-38.5 -15q-12 0 -79.5 -3t-112.5 -3l-76 -7q-94 -6 -145 -6q-33 0 -56 4q-37 4 -55 21q-14 14 -16 37v12q2 6 4 14q2 10 8 25q10 20 27 57l47 94q10 23 73 134l58 98l6 12q72 176 96 250q14 43 19 70 l-46 -11q-10 -2 -106 -24l-39 -10q-16 -4 -19 -4.5t-10.5 -2.5t-9.5 -3t-20 -7l-41 -16q-23 -6 -42.5 3t-27.5 30q-8 27 8 49q-14 14 -14 35z" />
<glyph unicode="{" horiz-adv-x="743" d="M51 645q2 43 43 84q8 8 64 53q66 53 69 92q2 27 -14 78q-27 78 -31 109q-10 104 16.5 225t84.5 232q61 117 149 200.5t197 112.5q23 6 41 -5t24 -32.5t-5.5 -40t-31.5 -24.5q-84 -23 -155.5 -91.5t-124.5 -169.5q-51 -98 -73.5 -203.5t-14.5 -191.5q2 -18 24 -86 q25 -74 21 -121q-8 -86 -111 -168q-45 -35 -53 -43l-12 -18q0 -12 47 -57q4 -2 17.5 -13.5t19.5 -17.5t18 -19.5t19.5 -22.5t15.5 -21.5t12 -24.5q27 -70 28 -140.5t-13.5 -140t-14.5 -78.5q-2 -41 27 -61q51 -41 209 -68q20 -4 32.5 -22.5t9.5 -40t-21.5 -33.5t-41.5 -10 q-182 33 -254 88q-74 57 -67 156q2 31 10 73l14 76q6 31 3 75t-19 89q-6 14 -74 76q-88 80 -84 145z" />
<glyph unicode="|" horiz-adv-x="411" d="M170 1511q-2 23 12.5 40.5t36 19.5t38.5 -12.5t19 -34.5q8 -92 42 -351.5t42 -400.5q6 -90 6.5 -191.5t-3 -226.5t-3.5 -190q0 -23 -15 -38t-37.5 -15t-38 15t-15.5 38q0 68 3 201t3 199.5t-6 199.5q-8 141 -41 399q-35 254 -43 348z" />
<glyph unicode="}" horiz-adv-x="755" d="M49 1685.5q2 22.5 18 37t39 12.5q84 -6 145.5 -26.5t135.5 -66.5q145 -86 197 -192q51 -102 39 -233q-6 -68 -48 -226q-39 -150 -47 -229q-4 -31 -2 -47q6 0 19 4q25 6 35 8q63 10 98 -27q53 -55 20 -170q-23 -76 -82 -182q-96 -172 -192 -282q-16 -18 -51 -45t-41 -31 q-16 -14 -39 -12t-37 18t-12 38.5t18 37.5l47 34q23 16 33 29q90 102 182 264q53 96 72 160q12 43 6 64h-4q-6 -2 -25 -7q-23 -6 -34 -8q-66 -10 -99 37q-29 39 -18 129q8 78 51 244q37 143 43 209q10 98 -29 176q-37 78 -153 149q-66 37 -115 54q-47 16 -121 22 q-23 2 -37 18.5t-12 39z" />
<glyph unicode="~" horiz-adv-x="1320" d="M7.5 687.5q7.5 21.5 27.5 29.5l102 53q70 35 119 55q152 61 266 41q80 -16 197 -82q18 -10 81.5 -49t100.5 -57q92 -49 154 -49q70 -2 127 59q14 16 36.5 16.5t39 -14t16.5 -37t-14 -39.5q-90 -96 -207 -92q-86 0 -203 62q-35 18 -100.5 58t-83.5 50q-100 57 -164 68 q-84 16 -207 -33q-45 -18 -109 -51l-106 -53q-18 -10 -40 -3t-31 26.5t-1.5 41z" />
<glyph unicode="&#xad;" d="M164 655.5q0 22.5 14 39t37 16.5h39q16 16 39 16h26q12 0 30 1t26 1q55 0 90 -2q4 0 21.5 -1t27.5 -3q23 -2 35 -8q33 -18 33 -53q-2 -29 -27 -46q-10 -8 -27 -10q-6 -2 -14 -2q-14 -2 -37 -2q-37 -2 -98 0q-27 0 -66 1t-63 1h-31q-23 0 -39 14.5t-16 37z" />
<glyph unicode="&#x2000;" horiz-adv-x="944" />
<glyph unicode="&#x2001;" horiz-adv-x="1888" />
<glyph unicode="&#x2002;" horiz-adv-x="944" />
<glyph unicode="&#x2003;" horiz-adv-x="1888" />
<glyph unicode="&#x2004;" horiz-adv-x="629" />
<glyph unicode="&#x2005;" horiz-adv-x="472" />
<glyph unicode="&#x2006;" horiz-adv-x="314" />
<glyph unicode="&#x2007;" horiz-adv-x="314" />
<glyph unicode="&#x2008;" horiz-adv-x="236" />
<glyph unicode="&#x2009;" horiz-adv-x="377" />
<glyph unicode="&#x200a;" horiz-adv-x="104" />
<glyph unicode="&#x2010;" d="M164 655.5q0 22.5 14 39t37 16.5h39q16 16 39 16h26q12 0 30 1t26 1q55 0 90 -2q4 0 21.5 -1t27.5 -3q23 -2 35 -8q33 -18 33 -53q-2 -29 -27 -46q-10 -8 -27 -10q-6 -2 -14 -2q-14 -2 -37 -2q-37 -2 -98 0q-27 0 -66 1t-63 1h-31q-23 0 -39 14.5t-16 37z" />
<glyph unicode="&#x2011;" d="M164 655.5q0 22.5 14 39t37 16.5h39q16 16 39 16h26q12 0 30 1t26 1q55 0 90 -2q4 0 21.5 -1t27.5 -3q23 -2 35 -8q33 -18 33 -53q-2 -29 -27 -46q-10 -8 -27 -10q-6 -2 -14 -2q-14 -2 -37 -2q-37 -2 -98 0q-27 0 -66 1t-63 1h-31q-23 0 -39 14.5t-16 37z" />
<glyph unicode="&#x2012;" d="M164 655.5q0 22.5 14 39t37 16.5h39q16 16 39 16h26q12 0 30 1t26 1q55 0 90 -2q4 0 21.5 -1t27.5 -3q23 -2 35 -8q33 -18 33 -53q-2 -29 -27 -46q-10 -8 -27 -10q-6 -2 -14 -2q-14 -2 -37 -2q-37 -2 -98 0q-27 0 -66 1t-63 1h-31q-23 0 -39 14.5t-16 37z" />
<glyph unicode="&#x2013;" horiz-adv-x="1232" d="M164 655.5q0 22.5 34.5 39t90.5 16.5h95q40 16 96 16h64q29 0 73 1t64 1q135 0 220 -2q10 0 53 -1t67 -3q57 -2 86 -8q81 -18 81 -53q-5 -29 -66 -46q-25 -8 -66 -10q-15 -2 -35 -2q-34 -2 -90 -2q-91 -2 -240 0q-66 0 -162 1t-154 1h-76q-57 0 -96 14.5t-39 37z" />
<glyph unicode="&#x2014;" horiz-adv-x="2256" d="M164 655.5q0 22.5 68.5 39t181.5 16.5h191q78 16 191 16h127q59 0 147.5 1t127.5 1q269 0 441 -2q19 0 105 -1t135 -3q113 -2 171 -8q162 -18 162 -53q-10 -29 -132 -46q-49 -8 -133 -10q-29 -2 -68 -2q-69 -2 -181 -2q-182 -2 -481 0q-132 0 -323 1t-309 1h-152 q-112 0 -190.5 14.5t-78.5 37z" />
<glyph unicode="&#x2018;" horiz-adv-x="391" d="M150 1536q35 131 102 205q14 16 36.5 16t39 -14t16.5 -37t-14 -39q-49 -53 -78 -160q-31 -109 2 -147q6 -8 14 -14l23 -15q12 -10 26 -22q18 -12 20.5 -35t-11 -40t-36 -19.5t-38.5 12.5q-2 0 -19.5 12t-34 25.5t-26.5 25.5q-68 84 -22 246z" />
<glyph unicode="&#x2019;" horiz-adv-x="407" d="M160 1268.5q-4 21.5 8 40.5q47 68 68.5 123t16.5 111t-46 106q-14 18 -12 39.5t19 36t39 12t36 -18.5q158 -193 -31 -471q-14 -18 -35.5 -22t-40 9t-22.5 34.5z" />
<glyph unicode="&#x201c;" horiz-adv-x="612" d="M168 1235q4 139 39 256q6 23 25.5 33t41 4t31.5 -26t4 -40q-31 -104 -35 -231q-6 -150 37 -189q8 -6 17 -10l22 -12l31 -14q18 -12 24.5 -34t-5 -40.5t-33 -24.5t-39.5 4q-2 2 -20.5 11.5t-37 19.5t-28.5 23q-82 72 -74 270zM455 1473q2 23 19.5 36t40 11t35.5 -19.5 t11 -40.5q-27 -227 4 -467q2 -20 -11 -37.5t-34.5 -20.5t-39 10t-21.5 36q-31 252 -4 492z" />
<glyph unicode="&#x201d;" horiz-adv-x="729" d="M275.5 912.5q-5.5 21.5 7.5 41.5q18 31 32.5 60.5t24.5 66.5l12 62q6 23 9.5 71t4.5 65t3 77.5t2 77.5q0 23 16 37t39 14t37 -16t14 -39q0 -16 -1 -75t-3 -80.5t-5 -71.5t-9 -81l-19 -69q-10 -43 -27.5 -80t-39.5 -76q-10 -18 -32 -23.5t-41 6t-24.5 33zM473 957.5 q-2 21.5 14 37.5q133 150 72 449q-6 20 6.5 38.5t34 23.5t40 -7t22.5 -35q20 -92 22 -180t-25.5 -188.5t-93.5 -169.5q-14 -16 -35.5 -18.5t-38 13t-18.5 37z" />
<glyph unicode="&#x202f;" horiz-adv-x="377" />
<glyph unicode="&#x205f;" horiz-adv-x="472" />
<glyph unicode="&#x25fc;" horiz-adv-x="573" d="M0 0v573h573v-573h-573z" />
</font>
</defs>
</svg>
